<?xml version="1.0" encoding="UTF-8" standalone="no"?>
<!-- Created with Inkscape (http://www.inkscape.org/) -->

<svg
   xmlns:dc="http://purl.org/dc/elements/1.1/"
   xmlns:cc="http://creativecommons.org/ns#"
   xmlns:rdf="http://www.w3.org/1999/02/22-rdf-syntax-ns#"
   xmlns:svg="http://www.w3.org/2000/svg"
   xmlns="http://www.w3.org/2000/svg"
   xmlns:xlink="http://www.w3.org/1999/xlink"
   version="1.1"
   width="500"
   height="70"
   id="svg2"
   xml:space="preserve"><metadata
     id="metadata8"><rdf:RDF><cc:Work
         rdf:about=""><dc:format>image/svg+xml</dc:format><dc:type
           rdf:resource="http://purl.org/dc/dcmitype/StillImage" /><dc:title></dc:title></cc:Work></rdf:RDF></metadata><defs
     id="defs6"><clipPath
       id="clipPath24"><path
         d="M 0,792 612,792 612,0 0,0 0,792 z"
         id="path26" /></clipPath><linearGradient
       x1="0"
       y1="0"
       x2="1"
       y2="0"
       id="linearGradient96"
       gradientUnits="userSpaceOnUse"
       gradientTransform="matrix(0,11.279785,11.279785,0,157.68604,390.2959)"
       spreadMethod="pad"><stop
         id="stop98"
         style="stop-color:#bcbec0;stop-opacity:1"
         offset="0" /><stop
         id="stop100"
         style="stop-color:#939598;stop-opacity:1"
         offset="0.69779998" /><stop
         id="stop102"
         style="stop-color:#939598;stop-opacity:1"
         offset="0.69779998" /><stop
         id="stop104"
         style="stop-color:#939598;stop-opacity:1"
         offset="1" /></linearGradient><linearGradient
       x1="0"
       y1="0"
       x2="1"
       y2="0"
       id="linearGradient120"
       gradientUnits="userSpaceOnUse"
       gradientTransform="matrix(0,8.8989258,8.8989258,0,157.62256,399.26758)"
       spreadMethod="pad"><stop
         id="stop122"
         style="stop-color:#ffffff;stop-opacity:1"
         offset="0" /><stop
         id="stop124"
         style="stop-color:#bcbec0;stop-opacity:1"
         offset="1" /></linearGradient><clipPath
       id="clipPath132"><path
         d="M 0,792 612,792 612,0 0,0 0,792 z"
         id="path134" /></clipPath><linearGradient
       x1="0"
       y1="0"
       x2="1"
       y2="0"
       id="linearGradient208"
       gradientUnits="userSpaceOnUse"
       gradientTransform="matrix(0,11.279785,11.279785,0,279.26904,390.2959)"
       spreadMethod="pad"><stop
         id="stop210"
         style="stop-color:#bcbec0;stop-opacity:1"
         offset="0" /><stop
         id="stop212"
         style="stop-color:#939598;stop-opacity:1"
         offset="0.69779998" /><stop
         id="stop214"
         style="stop-color:#939598;stop-opacity:1"
         offset="0.69779998" /><stop
         id="stop216"
         style="stop-color:#939598;stop-opacity:1"
         offset="1" /></linearGradient><clipPath
       id="clipPath224"><path
         d="M 0,792 612,792 612,0 0,0 0,792 z"
         id="path226" /></clipPath><linearGradient
       x1="0"
       y1="0"
       x2="1"
       y2="0"
       id="linearGradient244"
       gradientUnits="userSpaceOnUse"
       gradientTransform="matrix(0,8.8989258,8.8989258,0,279.20557,399.26758)"
       spreadMethod="pad"><stop
         id="stop246"
         style="stop-color:#ffffff;stop-opacity:1"
         offset="0" /><stop
         id="stop248"
         style="stop-color:#bcbec0;stop-opacity:1"
         offset="1" /></linearGradient><clipPath
       id="clipPath256"><path
         d="M 0,792 612,792 612,0 0,0 0,792 z"
         id="path258" /></clipPath><linearGradient
       x1="0"
       y1="0"
       x2="1"
       y2="0"
       id="linearGradient328"
       gradientUnits="userSpaceOnUse"
       gradientTransform="matrix(0,9.4804688,9.4804688,0,218.29053,399.10156)"
       spreadMethod="pad"><stop
         id="stop330"
         style="stop-color:#ffffff;stop-opacity:1"
         offset="0" /><stop
         id="stop332"
         style="stop-color:#bcbec0;stop-opacity:1"
         offset="1" /></linearGradient><linearGradient
       x1="0"
       y1="0"
       x2="1"
       y2="0"
       id="linearGradient348"
       gradientUnits="userSpaceOnUse"
       gradientTransform="matrix(0,9.7094727,9.7094727,0,218.27979,389.7627)"
       spreadMethod="pad"><stop
         id="stop350"
         style="stop-color:#bcbec0;stop-opacity:1"
         offset="0" /><stop
         id="stop352"
         style="stop-color:#939598;stop-opacity:1"
         offset="0.89559901" /><stop
         id="stop354"
         style="stop-color:#939598;stop-opacity:1"
         offset="0.89559901" /><stop
         id="stop356"
         style="stop-color:#939598;stop-opacity:1"
         offset="1" /></linearGradient><clipPath
       id="clipPath364"><path
         d="M 0,792 612,792 612,0 0,0 0,792 z"
         id="path366" /></clipPath><linearGradient
       x1="0"
       y1="0"
       x2="1"
       y2="0"
       id="linearGradient492"
       gradientUnits="userSpaceOnUse"
       gradientTransform="matrix(0,9.4042969,9.4042969,0,340.40039,398.72559)"
       spreadMethod="pad"><stop
         id="stop494"
         style="stop-color:#ffffff;stop-opacity:1"
         offset="0" /><stop
         id="stop496"
         style="stop-color:#bcbec0;stop-opacity:1"
         offset="1" /></linearGradient><linearGradient
       x1="0"
       y1="0"
       x2="1"
       y2="0"
       id="linearGradient512"
       gradientUnits="userSpaceOnUse"
       gradientTransform="matrix(0,8.7680664,8.7680664,0,339.84961,390.43164)"
       spreadMethod="pad"><stop
         id="stop514"
         style="stop-color:#bcbec0;stop-opacity:1"
         offset="0" /><stop
         id="stop516"
         style="stop-color:#939598;stop-opacity:1"
         offset="0.90109301" /><stop
         id="stop518"
         style="stop-color:#939598;stop-opacity:1"
         offset="0.90109301" /><stop
         id="stop520"
         style="stop-color:#939598;stop-opacity:1"
         offset="1" /></linearGradient><clipPath
       id="clipPath528"><path
         d="M 0,792 612,792 612,0 0,0 0,792 z"
         id="path530" /></clipPath><linearGradient
       x1="0"
       y1="0"
       x2="1"
       y2="0"
       id="linearGradient608"
       gradientUnits="userSpaceOnUse"
       gradientTransform="matrix(0,10.035156,10.035156,0,401.32031,398.16602)"
       spreadMethod="pad"><stop
         id="stop610"
         style="stop-color:#ffffff;stop-opacity:1"
         offset="0" /><stop
         id="stop612"
         style="stop-color:#bcbec0;stop-opacity:1"
         offset="1" /></linearGradient><linearGradient
       x1="0"
       y1="0"
       x2="1"
       y2="0"
       id="linearGradient628"
       gradientUnits="userSpaceOnUse"
       gradientTransform="matrix(0,8.1860352,8.1860352,0,401.51953,390.78516)"
       spreadMethod="pad"><stop
         id="stop630"
         style="stop-color:#bcbec0;stop-opacity:1"
         offset="0" /><stop
         id="stop632"
         style="stop-color:#939598;stop-opacity:1"
         offset="0.90109301" /><stop
         id="stop634"
         style="stop-color:#939598;stop-opacity:1"
         offset="0.90109301" /><stop
         id="stop636"
         style="stop-color:#939598;stop-opacity:1"
         offset="1" /></linearGradient><clipPath
       id="clipPath644"><path
         d="M 0,792 612,792 612,0 0,0 0,792 z"
         id="path646" /></clipPath><linearGradient
       x1="0"
       y1="0"
       x2="1"
       y2="0"
       id="linearGradient3875"
       xlink:href="#linearGradient96"
       gradientUnits="userSpaceOnUse"
       gradientTransform="matrix(0,11.279785,11.279785,0,157.68604,390.2959)"
       spreadMethod="pad" /><linearGradient
       x1="0"
       y1="0"
       x2="1"
       y2="0"
       id="linearGradient3877"
       xlink:href="#linearGradient120"
       gradientUnits="userSpaceOnUse"
       gradientTransform="matrix(0,8.8989258,8.8989258,0,157.62256,399.26758)"
       spreadMethod="pad" /><linearGradient
       x1="0"
       y1="0"
       x2="1"
       y2="0"
       id="linearGradient3879"
       xlink:href="#linearGradient208"
       gradientUnits="userSpaceOnUse"
       gradientTransform="matrix(0,11.279785,11.279785,0,279.26904,390.2959)"
       spreadMethod="pad" /><linearGradient
       x1="0"
       y1="0"
       x2="1"
       y2="0"
       id="linearGradient3881"
       xlink:href="#linearGradient244"
       gradientUnits="userSpaceOnUse"
       gradientTransform="matrix(0,8.8989258,8.8989258,0,279.20557,399.26758)"
       spreadMethod="pad" /><linearGradient
       x1="0"
       y1="0"
       x2="1"
       y2="0"
       id="linearGradient3883"
       xlink:href="#linearGradient328"
       gradientUnits="userSpaceOnUse"
       gradientTransform="matrix(0,9.4804688,9.4804688,0,218.29053,399.10156)"
       spreadMethod="pad" /><linearGradient
       x1="0"
       y1="0"
       x2="1"
       y2="0"
       id="linearGradient3885"
       xlink:href="#linearGradient348"
       gradientUnits="userSpaceOnUse"
       gradientTransform="matrix(0,9.7094727,9.7094727,0,218.27979,389.7627)"
       spreadMethod="pad" /><linearGradient
       x1="0"
       y1="0"
       x2="1"
       y2="0"
       id="linearGradient3887"
       xlink:href="#linearGradient492"
       gradientUnits="userSpaceOnUse"
       gradientTransform="matrix(0,9.4042969,9.4042969,0,340.40039,398.72559)"
       spreadMethod="pad" /><linearGradient
       x1="0"
       y1="0"
       x2="1"
       y2="0"
       id="linearGradient3889"
       xlink:href="#linearGradient512"
       gradientUnits="userSpaceOnUse"
       gradientTransform="matrix(0,8.7680664,8.7680664,0,339.84961,390.43164)"
       spreadMethod="pad" /><linearGradient
       x1="0"
       y1="0"
       x2="1"
       y2="0"
       id="linearGradient3891"
       xlink:href="#linearGradient608"
       gradientUnits="userSpaceOnUse"
       gradientTransform="matrix(0,10.035156,10.035156,0,401.32031,398.16602)"
       spreadMethod="pad" /><linearGradient
       x1="0"
       y1="0"
       x2="1"
       y2="0"
       id="linearGradient3893"
       xlink:href="#linearGradient628"
       gradientUnits="userSpaceOnUse"
       gradientTransform="matrix(0,8.1860352,8.1860352,0,401.51953,390.78516)"
       spreadMethod="pad" /></defs><g
     transform="matrix(1.25,0,0,-1.25,0,70)"
     id="g10"><g
       transform="matrix(1.1316135,0,0,1.1612234,-145.83422,-432.30385)"
       id="g3627"><g
         transform="translate(389.5254,371.8877)"
         id="g12"><path
           d="m 0,0 21.094,0 41.187,48.225 -21.093,0 L 0,0 z"
           id="path14"
           style="fill:#cd3029;fill-opacity:1;fill-rule:nonzero;stroke:none" /></g><g
         transform="translate(418.6904,371.8877)"
         id="g16"><path
           d="m 0,0 21.094,0 41.187,48.225 -21.093,0 L 0,0 z"
           id="path18"
           style="fill:#cd3029;fill-opacity:1;fill-rule:nonzero;stroke:none" /></g><g
         id="g20"><g
           clip-path="url(#clipPath24)"
           id="g22"><g
             transform="translate(132.8086,389.2148)"
             id="g28"><path
               d="m 0,0 c -0.983,0 -1.78,0.809 -1.78,1.808 l 0,16.317 c 0,1 0.797,1.81 1.78,1.81 l 34.652,-0.087 c 9.765,0 17.682,-4.432 17.682,-9.899 0,-5.468 -7.917,-9.898 -17.682,-9.898 L 0,0 z m 29.697,4.618 c 5.005,0 9.063,2.391 9.063,5.339 0,2.948 -4.058,5.338 -9.063,5.338 l -17.761,0.047 c -0.504,0 -0.914,-0.437 -0.914,-0.975 l 0,-8.801 c 0,-0.538 0.41,-0.975 0.914,-0.975 l 17.761,0.027 z"
               id="path30"
               style="fill:#262626;fill-opacity:1;fill-rule:nonzero;stroke:none" /></g><g
             transform="translate(132.8892,389.3223)"
             id="g32"><path
               d="m 0,0 c -0.979,0 -1.772,0.802 -1.772,1.793 l 0,16.186 c 0,0.991 0.793,1.794 1.772,1.794 l 34.483,-0.086 c 9.717,0 17.595,-4.396 17.595,-9.818 C 52.078,4.445 44.2,0.05 34.483,0.05 L 0,0 z m 29.621,4.469 c 5.05,-0.001 9.145,2.427 9.145,5.424 0.001,2.996 -4.093,5.425 -9.143,5.426 L 11.702,15.37 c -0.509,0 -0.922,-0.444 -0.922,-0.991 L 10.778,5.437 c 0,-0.547 0.412,-0.993 0.921,-0.993 l 17.922,0.025 z"
               id="path34"
               style="fill:#313131;fill-opacity:1;fill-rule:nonzero;stroke:none" /></g><g
             transform="translate(132.9697,389.4287)"
             id="g36"><path
               d="m 0,0 c -0.974,0 -1.763,0.796 -1.763,1.779 l 0,16.054 c 0,0.983 0.789,1.78 1.763,1.78 l 34.313,-0.086 c 9.669,0 17.509,-4.36 17.509,-9.738 0,-5.38 -7.84,-9.739 -17.509,-9.739 L 0,0 z m 29.544,4.32 c 5.096,-0.002 9.227,2.465 9.228,5.509 0.001,3.044 -4.128,5.512 -9.223,5.514 l -18.082,0.056 c -0.513,0 -0.929,-0.451 -0.93,-1.006 L 10.534,5.307 C 10.533,4.751 10.95,4.3 11.463,4.299 L 29.544,4.32 z"
               id="path38"
               style="fill:#3c3c3c;fill-opacity:1;fill-rule:nonzero;stroke:none" /></g><g
             transform="translate(133.0498,389.5361)"
             id="g40"><path
               d="m 0,0 c -0.969,0 -1.754,0.789 -1.754,1.764 l 0,15.922 c 0,0.976 0.785,1.766 1.754,1.766 l 34.144,-0.085 c 9.622,0 17.422,-4.325 17.422,-9.659 0,-5.335 -7.8,-9.659 -17.422,-9.659 L 0,0 z m 29.468,4.171 c 5.14,-0.003 9.309,2.502 9.311,5.593 0.002,3.092 -4.163,5.6 -9.304,5.603 l -18.241,0.06 c -0.518,0 -0.939,-0.458 -0.939,-1.022 L 10.29,5.177 C 10.289,4.612 10.709,4.153 11.227,4.153 l 18.241,0.018 z"
               id="path42"
               style="fill:#474747;fill-opacity:1;fill-rule:nonzero;stroke:none" /></g><g
             transform="translate(133.1304,389.6426)"
             id="g44"><path
               d="m 0,0 c -0.964,0 -1.746,0.783 -1.746,1.75 l 0,15.791 c 0,0.967 0.782,1.75 1.746,1.75 l 33.974,-0.084 c 9.574,0 17.336,-4.289 17.336,-9.579 C 51.31,4.337 43.548,0.05 33.974,0.05 L 0,0 z m 29.392,4.023 c 5.185,-0.004 9.391,2.539 9.393,5.678 0.003,3.139 -4.199,5.687 -9.384,5.691 L 11,15.456 c -0.522,0 -0.947,-0.465 -0.947,-1.038 l -0.008,-9.37 c 0,-0.573 0.423,-1.039 0.945,-1.04 l 18.402,0.015 z"
               id="path46"
               style="fill:#515151;fill-opacity:1;fill-rule:nonzero;stroke:none" /></g><g
             transform="translate(133.2109,389.75)"
             id="g48"><path
               d="m 0,0 c -0.959,0 -1.737,0.776 -1.737,1.735 l 0,15.659 c 0,0.959 0.778,1.736 1.737,1.736 l 33.805,-0.084 c 9.526,0 17.249,-4.252 17.249,-9.499 0,-5.246 -7.723,-9.498 -17.249,-9.498 L 0,0 z m 29.315,3.874 c 5.231,-0.006 9.474,2.575 9.477,5.762 0.003,3.187 -4.234,5.775 -9.465,5.78 l -18.561,0.068 c -0.527,0 -0.955,-0.472 -0.956,-1.054 L 9.801,4.917 C 9.8,4.335 10.227,3.862 10.754,3.861 l 18.561,0.013 z"
               id="path50"
               style="fill:#5c5c5c;fill-opacity:1;fill-rule:nonzero;stroke:none" /></g><g
             transform="translate(133.2915,389.8574)"
             id="g52"><path
               d="m 0,0 c -0.955,0 -1.729,0.77 -1.729,1.721 l 0,15.526 c 0,0.951 0.774,1.721 1.729,1.721 l 33.635,-0.082 c 9.478,0 17.162,-4.217 17.162,-9.419 0,-5.202 -7.684,-9.419 -17.162,-9.419 L 0,0 z m 29.239,3.725 c 5.276,-0.007 9.556,2.612 9.559,5.846 0.004,3.236 -4.27,5.863 -9.546,5.868 L 10.531,15.512 C 10,15.512 9.568,15.033 9.567,14.442 L 9.557,4.787 C 9.556,4.196 9.986,3.716 10.518,3.715 l 18.721,0.01 z"
               id="path54"
               style="fill:#676767;fill-opacity:1;fill-rule:nonzero;stroke:none" /></g><g
             transform="translate(133.3716,389.9639)"
             id="g56"><path
               d="m 0,0 c -0.95,0 -1.72,0.765 -1.72,1.706 l 0,15.396 c 0,0.942 0.77,1.706 1.72,1.706 l 33.466,-0.081 c 9.43,0 17.076,-4.182 17.076,-9.34 0,-5.158 -7.646,-9.339 -17.076,-9.339 L 0,0 z m 29.163,3.576 c 5.32,-0.007 9.638,2.65 9.642,5.932 0.005,3.283 -4.305,5.949 -9.626,5.956 L 10.298,15.541 C 9.762,15.542 9.326,15.056 9.325,14.456 L 9.313,4.658 C 9.312,4.059 9.746,3.571 10.281,3.57 l 18.882,0.006 z"
               id="path58"
               style="fill:#727272;fill-opacity:1;fill-rule:nonzero;stroke:none" /></g><g
             transform="translate(133.4521,390.0713)"
             id="g60"><path
               d="m 0,0 c -0.945,0 -1.711,0.758 -1.711,1.691 l 0,15.264 c 0,0.934 0.766,1.691 1.711,1.691 l 33.296,-0.08 c 9.383,0 16.989,-4.146 16.989,-9.26 0,-5.114 -7.606,-9.259 -16.989,-9.259 L 0,0 z m 29.086,3.427 c 5.366,-0.008 9.721,2.686 9.725,6.016 0.005,3.331 -4.34,6.037 -9.706,6.045 l -19.042,0.081 c -0.54,0 -0.979,-0.492 -0.98,-1.101 L 9.068,4.528 C 9.067,3.92 9.504,3.425 10.045,3.424 l 19.041,0.003 z"
               id="path62"
               style="fill:#7c7c7c;fill-opacity:1;fill-rule:nonzero;stroke:none" /></g><g
             transform="translate(133.5327,390.1787)"
             id="g64"><path
               d="m 0,0 c -0.94,0 -1.703,0.751 -1.703,1.677 l 0,15.131 c 0,0.926 0.763,1.677 1.703,1.677 l 33.126,-0.08 c 9.336,0 16.903,-4.11 16.903,-9.179 0,-5.07 -7.567,-9.18 -16.903,-9.18 L 0,0 z m 29.01,3.277 c 5.411,-0.008 9.803,2.724 9.807,6.101 0.006,3.379 -4.375,6.125 -9.786,6.134 L 9.83,15.597 C 9.284,15.598 8.841,15.098 8.84,14.48 L 8.824,4.397 C 8.822,3.78 9.263,3.278 9.809,3.277 l 19.201,0 z"
               id="path66"
               style="fill:#878787;fill-opacity:1;fill-rule:nonzero;stroke:none" /></g><g
             transform="translate(133.6133,390.2852)"
             id="g68"><path
               d="m 0,0 c -0.936,0 -1.694,0.745 -1.694,1.663 l 0,15 c 0,0.918 0.758,1.662 1.694,1.662 l 32.957,-0.079 c 9.287,0 16.816,-4.075 16.816,-9.1 0,-5.026 -7.529,-9.099 -16.816,-9.099 L 0,0 z m 28.933,3.13 c 5.457,-0.011 9.885,2.76 9.89,6.185 0.007,3.427 -4.41,6.211 -9.866,6.221 l -19.362,0.09 c -0.549,0 -0.996,-0.506 -0.997,-1.132 L 8.58,4.269 C 8.578,3.643 9.022,3.134 9.572,3.132 L 28.933,3.13 z"
               id="path70"
               style="fill:#929292;fill-opacity:1;fill-rule:nonzero;stroke:none" /></g><g
             transform="translate(133.6934,390.3926)"
             id="g72"><path
               d="m 0,0 c -0.93,0 -1.685,0.738 -1.685,1.647 l 0,14.869 c 0,0.91 0.755,1.648 1.685,1.648 l 32.788,-0.079 c 9.239,0 16.729,-4.039 16.729,-9.02 0,-4.981 -7.49,-9.019 -16.729,-9.019 L 0,0 z m 28.857,2.98 c 5.501,-0.011 9.967,2.797 9.973,6.27 0.008,3.475 -4.446,6.299 -9.947,6.31 L 9.362,15.654 C 8.808,15.655 8.357,15.141 8.355,14.506 L 8.335,4.139 C 8.334,3.504 8.782,2.987 9.336,2.986 L 28.857,2.98 z"
               id="path74"
               style="fill:#9d9d9d;fill-opacity:1;fill-rule:nonzero;stroke:none" /></g><g
             transform="translate(133.7739,390.499)"
             id="g76"><path
               d="m 0,0 c -0.926,0 -1.676,0.732 -1.676,1.634 l 0,14.736 c 0,0.902 0.75,1.633 1.676,1.633 l 32.618,-0.078 c 9.192,0 16.643,-4.002 16.643,-8.94 0,-4.937 -7.451,-8.939 -16.643,-8.939 L 0,0 z m 28.781,2.832 c 5.546,-0.013 10.049,2.834 10.055,6.355 0.009,3.522 -4.481,6.386 -10.027,6.397 L 9.127,15.683 C 8.569,15.684 8.115,15.163 8.113,14.519 L 8.091,4.009 C 8.089,3.365 8.541,2.843 9.1,2.841 L 28.781,2.832 z"
               id="path78"
               style="fill:#a8a8a8;fill-opacity:1;fill-rule:nonzero;stroke:none" /></g><g
             transform="translate(133.8545,390.6064)"
             id="g80"><path
               d="m 0,0 c -0.921,0 -1.668,0.726 -1.668,1.619 l 0,14.605 c 0,0.893 0.747,1.618 1.668,1.618 l 32.448,-0.077 c 9.145,0 16.557,-3.967 16.557,-8.861 0,-4.892 -7.412,-8.859 -16.557,-8.859 L 0,0 z m 28.704,2.683 c 5.592,-0.014 10.132,2.871 10.139,6.439 0.009,3.57 -4.517,6.474 -10.109,6.486 L 8.894,15.711 C 8.33,15.712 7.872,15.184 7.87,14.531 L 7.847,3.879 C 7.845,3.227 8.3,2.696 8.863,2.694 L 28.704,2.683 z"
               id="path82"
               style="fill:#b3b3b3;fill-opacity:1;fill-rule:nonzero;stroke:none" /></g></g></g><g
         id="g84"><g
           id="g86"><g
             id="g92"><g
               id="g94"><path
                 d="m 132.628,398.703 c -0.144,-2.023 -0.281,-3.941 -0.281,-5.904 l 0,0 c 0,-1.966 0.448,-2.439 1.835,-2.469 l 0,0 c 1.446,-0.029 11.687,-0.075 19.125,0.041 l 0,0 c 2.063,0.032 4.062,0.018 5.987,0.006 l 0,0 c 6.656,-0.046 12.409,-0.091 16.788,1.728 l 0,0 c 4.862,2.019 6.707,5.438 6.845,6.356 l 0,0 c 0.135,0.891 0.206,2.54 -0.295,2.54 l 0,0 c -0.5,0 -8.115,-1.273 -8.73,-1.324 l 0,0 c -0.388,-0.03 -0.529,-0.947 -0.529,-0.947 l 0,0 c -0.964,-4.856 -6.346,-6.472 -7.617,-6.509 l 0,0 c -1.58,-0.049 -19.691,0 -21.041,0 l 0,0 c -1.348,0 -2.851,0.422 -2.851,1.771 l 0,0 c 0,1.35 -0.191,3.699 -0.244,4.711 l 0,0 c -0.019,0.387 -0.213,1.384 -0.107,2.714 l 0,0 c -0.212,-1.171 -0.851,-1.969 -1.488,-1.969 l 0,0 -5.641,0 c -1.437,0 -1.437,0.533 -1.702,2.128 l 0,0 c 0,-0.639 0,-2.128 -0.054,-2.873"
                 id="path106"
                 style="fill:url(#linearGradient3875);stroke:none" /></g></g></g></g><g
         id="g108"><g
           id="g110"><g
             id="g116"><g
               id="g118"><path
                 d="m 134.034,408.153 c -0.852,-0.044 -1.876,0.084 -1.834,-1.195 l 0,0 c 0.043,-1.28 0.411,-6.261 0.477,-7.588 l 0,0 8.809,0.018 c 0.17,0.641 0.312,4.115 0.312,4.626 l 0,0 c 0,0.512 -0.171,2.304 2.133,2.26 l 0,0 c 2.303,-0.043 14.29,-0.043 17.062,-0.043 l 0,0 c 2.774,0 12.498,-0.821 12.498,-6.963 l 0,0 9.555,0.004 c 0,1.428 -0.217,2.395 -0.865,3.191 l 0,0 c -1.032,1.266 -4.052,4.491 -13.466,5.432 l 0,0 c -2.014,0.203 -18.888,0.272 -28.696,0.272 l 0,0 c -2.661,0 -4.802,-0.005 -5.985,-0.014"
                 id="path126"
                 style="fill:url(#linearGradient3877);stroke:none" /></g></g></g></g><g
         id="g128"><g
           clip-path="url(#clipPath132)"
           id="g130"><g
             transform="translate(141.7158,392.7168)"
             id="g136"><path
               d="m 0,0 c 0,-0.688 0.131,-1.121 1.176,-1.121 1.923,0 15.771,0.018 18.757,0.018 2.986,0 6.689,-0.078 10.216,3.389 1.329,1.306 0.257,1.365 -0.809,0.598 C 28.273,2.115 26.523,0.22 19.997,0.22 13.472,0.22 6.44,0.238 2.431,0.238 1.682,0.238 1.445,0.702 1.248,0.898 1.051,1.096 0,1.275 0,0"
               id="path138"
               style="fill:#ffffff;fill-opacity:1;fill-rule:nonzero;stroke:none" /></g><g
             transform="translate(254.584,389.2148)"
             id="g140"><path
               d="m 0,0 c -0.982,0 -1.78,0.809 -1.78,1.808 l 0,16.317 c 0,1 0.798,1.81 1.78,1.81 l 34.652,-0.087 c 9.764,0 17.682,-4.432 17.682,-9.899 0,-5.468 -7.918,-9.898 -17.682,-9.898 L 0,0 z m 29.697,4.618 c 5.005,0 9.064,2.391 9.064,5.339 0,2.948 -4.059,5.338 -9.064,5.338 l -17.762,0.047 c -0.504,0 -0.914,-0.437 -0.914,-0.975 l 0,-8.801 c 0,-0.538 0.41,-0.975 0.914,-0.975 l 17.762,0.027 z"
               id="path142"
               style="fill:#262626;fill-opacity:1;fill-rule:nonzero;stroke:none" /></g><g
             transform="translate(254.6646,389.3223)"
             id="g144"><path
               d="m 0,0 c -0.978,0 -1.772,0.802 -1.772,1.793 l 0,16.186 c 0,0.991 0.794,1.794 1.772,1.794 l 34.483,-0.086 c 9.716,0 17.595,-4.396 17.595,-9.818 0,-5.424 -7.879,-9.819 -17.595,-9.819 L 0,0 z m 29.621,4.469 c 5.05,-0.001 9.145,2.427 9.146,5.424 10e-4,2.996 -4.094,5.425 -9.144,5.426 L 11.701,15.37 c -0.509,0 -0.922,-0.444 -0.922,-0.991 L 10.777,5.437 c 0,-0.547 0.412,-0.993 0.921,-0.993 l 17.923,0.025 z"
               id="path146"
               style="fill:#313131;fill-opacity:1;fill-rule:nonzero;stroke:none" /></g><g
             transform="translate(254.7451,389.4287)"
             id="g148"><path
               d="m 0,0 c -0.973,0 -1.763,0.796 -1.763,1.779 l 0,16.054 c 0,0.983 0.79,1.78 1.763,1.78 l 34.313,-0.086 c 9.668,0 17.508,-4.36 17.508,-9.738 0,-5.38 -7.84,-9.739 -17.508,-9.739 L 0,0 z m 29.544,4.32 c 5.095,-0.002 9.228,2.465 9.229,5.509 10e-4,3.044 -4.129,5.512 -9.224,5.514 l -18.083,0.056 c -0.513,0 -0.929,-0.451 -0.929,-1.006 L 10.533,5.307 c 0,-0.556 0.416,-1.007 0.929,-1.008 L 29.544,4.32 z"
               id="path150"
               style="fill:#3c3c3c;fill-opacity:1;fill-rule:nonzero;stroke:none" /></g><g
             transform="translate(254.8252,389.5361)"
             id="g152"><path
               d="m 0,0 c -0.968,0 -1.754,0.789 -1.754,1.764 l 0,15.922 c 0,0.976 0.786,1.766 1.754,1.766 l 34.144,-0.085 c 9.621,0 17.421,-4.325 17.421,-9.659 0,-5.335 -7.8,-9.659 -17.421,-9.659 L 0,0 z m 29.468,4.171 c 5.14,-0.003 9.31,2.502 9.312,5.593 0.002,3.092 -4.164,5.6 -9.305,5.603 l -18.242,0.06 c -0.518,0 -0.939,-0.458 -0.939,-1.022 L 10.289,5.177 c 0,-0.565 0.419,-1.024 0.937,-1.024 l 18.242,0.018 z"
               id="path154"
               style="fill:#474747;fill-opacity:1;fill-rule:nonzero;stroke:none" /></g><g
             transform="translate(254.9058,389.6426)"
             id="g156"><path
               d="m 0,0 c -0.963,0 -1.746,0.783 -1.746,1.75 l 0,15.791 c 0,0.967 0.783,1.75 1.746,1.75 l 33.974,-0.084 c 9.573,0 17.336,-4.289 17.336,-9.579 C 51.31,4.337 43.547,0.05 33.974,0.05 L 0,0 z m 29.392,4.023 c 5.185,-0.004 9.392,2.539 9.394,5.678 0.003,3.139 -4.2,5.687 -9.385,5.691 l -18.402,0.064 c -0.522,0 -0.947,-0.465 -0.947,-1.038 l -0.008,-9.37 c 0,-0.573 0.423,-1.039 0.946,-1.04 l 18.402,0.015 z"
               id="path158"
               style="fill:#515151;fill-opacity:1;fill-rule:nonzero;stroke:none" /></g><g
             transform="translate(254.9863,389.75)"
             id="g160"><path
               d="m 0,0 c -0.959,0 -1.737,0.776 -1.737,1.735 l 0,15.659 c 0,0.959 0.778,1.736 1.737,1.736 l 33.805,-0.084 c 9.525,0 17.248,-4.252 17.248,-9.499 0,-5.246 -7.723,-9.498 -17.248,-9.498 L 0,0 z m 29.315,3.874 c 5.23,-0.006 9.474,2.575 9.477,5.762 0.003,3.187 -4.234,5.775 -9.465,5.78 L 10.765,15.484 C 10.238,15.484 9.81,15.012 9.81,14.43 L 9.8,4.917 c 0,-0.582 0.426,-1.055 0.953,-1.056 l 18.562,0.013 z"
               id="path162"
               style="fill:#5c5c5c;fill-opacity:1;fill-rule:nonzero;stroke:none" /></g><g
             transform="translate(255.0669,389.8574)"
             id="g164"><path
               d="m 0,0 c -0.954,0 -1.729,0.77 -1.729,1.721 l 0,15.526 c 0,0.951 0.775,1.721 1.729,1.721 l 33.635,-0.082 c 9.477,0 17.162,-4.217 17.162,-9.419 0,-5.202 -7.685,-9.419 -17.162,-9.419 L 0,0 z m 29.239,3.725 c 5.275,-0.007 9.556,2.612 9.559,5.846 0.004,3.236 -4.27,5.863 -9.546,5.868 l -18.721,0.073 c -0.532,0 -0.964,-0.479 -0.964,-1.07 L 9.556,4.787 C 9.555,4.196 9.985,3.716 10.517,3.715 l 18.722,0.01 z"
               id="path166"
               style="fill:#676767;fill-opacity:1;fill-rule:nonzero;stroke:none" /></g><g
             transform="translate(255.147,389.9639)"
             id="g168"><path
               d="m 0,0 c -0.949,0 -1.72,0.765 -1.72,1.706 l 0,15.396 c 0,0.942 0.771,1.706 1.72,1.706 l 33.466,-0.081 c 9.43,0 17.075,-4.182 17.075,-9.34 0,-5.158 -7.645,-9.339 -17.075,-9.339 L 0,0 z m 29.163,3.576 c 5.32,-0.007 9.638,2.65 9.642,5.932 0.004,3.283 -4.305,5.949 -9.626,5.956 L 10.297,15.541 C 9.761,15.542 9.325,15.056 9.325,14.456 L 9.312,4.658 C 9.311,4.059 9.745,3.571 10.281,3.57 l 18.882,0.006 z"
               id="path170"
               style="fill:#727272;fill-opacity:1;fill-rule:nonzero;stroke:none" /></g><g
             transform="translate(255.2275,390.0713)"
             id="g172"><path
               d="m 0,0 c -0.944,0 -1.711,0.758 -1.711,1.691 l 0,15.264 c 0,0.934 0.767,1.691 1.711,1.691 l 33.296,-0.08 c 9.382,0 16.989,-4.146 16.989,-9.26 0,-5.114 -7.607,-9.259 -16.989,-9.259 L 0,0 z m 29.086,3.427 c 5.366,-0.008 9.721,2.686 9.726,6.016 0.004,3.331 -4.341,6.037 -9.707,6.045 l -19.042,0.081 c -0.541,0 -0.98,-0.492 -0.981,-1.101 L 9.068,4.528 C 9.066,3.92 9.503,3.425 10.044,3.424 l 19.042,0.003 z"
               id="path174"
               style="fill:#7c7c7c;fill-opacity:1;fill-rule:nonzero;stroke:none" /></g><g
             transform="translate(255.3081,390.1787)"
             id="g176"><path
               d="m 0,0 c -0.94,0 -1.703,0.751 -1.703,1.677 l 0,15.131 c 0,0.926 0.763,1.677 1.703,1.677 l 33.126,-0.08 c 9.335,0 16.902,-4.11 16.902,-9.179 0,-5.07 -7.567,-9.18 -16.902,-9.18 L 0,0 z m 29.01,3.277 c 5.41,-0.008 9.802,2.724 9.807,6.101 0.006,3.379 -4.375,6.125 -9.786,6.134 L 9.829,15.597 C 9.283,15.598 8.84,15.098 8.84,14.48 L 8.824,4.397 C 8.822,3.78 9.262,3.278 9.808,3.277 l 19.202,0 z"
               id="path178"
               style="fill:#878787;fill-opacity:1;fill-rule:nonzero;stroke:none" /></g><g
             transform="translate(255.3887,390.2852)"
             id="g180"><path
               d="m 0,0 c -0.935,0 -1.694,0.745 -1.694,1.663 l 0,15 c 0,0.918 0.759,1.662 1.694,1.662 l 32.957,-0.079 c 9.286,0 16.815,-4.075 16.815,-9.1 0,-5.026 -7.529,-9.099 -16.815,-9.099 L 0,0 z m 28.933,3.13 c 5.456,-0.011 9.885,2.76 9.891,6.185 0.006,3.427 -4.411,6.211 -9.867,6.221 l -19.362,0.09 c -0.55,0 -0.997,-0.506 -0.998,-1.132 L 8.579,4.269 C 8.578,3.643 9.021,3.134 9.572,3.132 L 28.933,3.13 z"
               id="path182"
               style="fill:#929292;fill-opacity:1;fill-rule:nonzero;stroke:none" /></g><g
             transform="translate(255.4688,390.3926)"
             id="g184"><path
               d="m 0,0 c -0.93,0 -1.685,0.738 -1.685,1.647 l 0,14.869 c 0,0.91 0.755,1.648 1.685,1.648 l 32.788,-0.079 c 9.238,0 16.729,-4.039 16.729,-9.02 0,-4.981 -7.491,-9.019 -16.729,-9.019 L 0,0 z m 28.857,2.98 c 5.501,-0.011 9.967,2.797 9.974,6.27 0.006,3.475 -4.447,6.299 -9.948,6.31 L 9.362,15.654 C 8.807,15.655 8.356,15.141 8.355,14.506 L 8.335,4.139 C 8.333,3.504 8.781,2.987 9.336,2.986 L 28.857,2.98 z"
               id="path186"
               style="fill:#9d9d9d;fill-opacity:1;fill-rule:nonzero;stroke:none" /></g><g
             transform="translate(255.5493,390.499)"
             id="g188"><path
               d="m 0,0 c -0.925,0 -1.676,0.732 -1.676,1.634 l 0,14.736 c 0,0.902 0.751,1.633 1.676,1.633 l 32.618,-0.078 c 9.191,0 16.642,-4.002 16.642,-8.94 0,-4.937 -7.451,-8.939 -16.642,-8.939 L 0,0 z m 28.781,2.832 c 5.545,-0.013 10.049,2.834 10.055,6.355 0.008,3.522 -4.481,6.386 -10.027,6.397 L 9.127,15.683 C 8.568,15.684 8.114,15.163 8.113,14.519 L 8.091,4.009 C 8.089,3.365 8.54,2.843 9.1,2.841 L 28.781,2.832 z"
               id="path190"
               style="fill:#a8a8a8;fill-opacity:1;fill-rule:nonzero;stroke:none" /></g><g
             transform="translate(255.6299,390.6064)"
             id="g192"><path
               d="m 0,0 c -0.921,0 -1.668,0.726 -1.668,1.619 l 0,14.605 c 0,0.893 0.747,1.618 1.668,1.618 l 32.448,-0.077 c 9.144,0 16.556,-3.967 16.556,-8.861 0,-4.892 -7.412,-8.859 -16.556,-8.859 L 0,0 z m 28.704,2.683 c 5.591,-0.014 10.131,2.871 10.139,6.439 0.008,3.57 -4.517,6.474 -10.109,6.486 L 8.894,15.711 C 8.329,15.712 7.871,15.184 7.87,14.531 L 7.847,3.879 C 7.845,3.227 8.299,2.696 8.863,2.694 L 28.704,2.683 z"
               id="path194"
               style="fill:#b3b3b3;fill-opacity:1;fill-rule:nonzero;stroke:none" /></g></g></g><g
         id="g196"><g
           id="g198"><g
             id="g204"><g
               id="g206"><path
                 d="m 254.208,398.703 c -0.145,-2.023 -0.281,-3.941 -0.281,-5.904 l 0,0 c 0,-1.966 0.448,-2.439 1.834,-2.469 l 0,0 c 1.447,-0.029 11.688,-0.075 19.132,0.041 l 0,0 c 2.063,0.032 4.063,0.018 5.987,0.006 l 0,0 c 6.656,-0.046 12.408,-0.091 16.789,1.728 l 0,0 c 4.861,2.019 6.706,5.438 6.843,6.356 l 0,0 c 0.134,0.891 0.207,2.54 -0.293,2.54 l 0,0 c -0.501,0 -8.115,-1.273 -8.73,-1.324 l 0,0 c -0.39,-0.03 -0.529,-0.947 -0.529,-0.947 l 0,0 c -0.964,-4.856 -6.347,-6.472 -7.621,-6.509 l 0,0 c -1.578,-0.049 -19.694,0 -21.043,0 l 0,0 c -1.349,0 -2.852,0.422 -2.852,1.771 l 0,0 c 0,1.35 -0.191,3.699 -0.244,4.711 l 0,0 c -0.02,0.387 -0.213,1.384 -0.107,2.714 l 0,0 c -0.213,-1.171 -0.851,-1.969 -1.488,-1.969 l 0,0 -5.641,0 c -1.438,0 -1.438,0.533 -1.703,2.128 l 0,0 c 0,-0.639 0,-2.128 -0.053,-2.873"
                 id="path218"
                 style="fill:url(#linearGradient3879);stroke:none" /></g></g></g></g><g
         id="g220"><g
           clip-path="url(#clipPath224)"
           id="g222"><g
             transform="translate(263.5107,392.7168)"
             id="g228"><path
               d="m 0,0 c 0,-0.688 0.131,-1.121 1.177,-1.121 1.923,0 15.777,0.018 18.763,0.018 2.986,0 6.689,-0.078 10.217,3.389 1.327,1.306 0.257,1.365 -0.81,0.598 C 28.28,2.115 26.53,0.22 20.003,0.22 13.478,0.22 6.44,0.238 2.431,0.238 1.682,0.238 1.446,0.702 1.248,0.898 1.052,1.096 0,1.275 0,0"
               id="path230"
               style="fill:#ffffff;fill-opacity:1;fill-rule:nonzero;stroke:none" /></g></g></g><g
         id="g232"><g
           id="g234"><g
             id="g240"><g
               id="g242"><path
                 d="m 255.613,408.153 c -0.853,-0.044 -1.876,0.084 -1.833,-1.195 l 0,0 c 0.042,-1.28 0.411,-6.261 0.477,-7.588 l 0,0 8.808,0.018 c 0.171,0.641 0.313,4.115 0.313,4.626 l 0,0 c 0,0.512 -0.171,2.304 2.133,2.26 l 0,0 c 2.303,-0.043 14.295,-0.043 17.068,-0.043 l 0,0 c 2.773,0 12.497,-0.821 12.497,-6.963 l 0,0 9.557,0.004 c 0,1.428 -0.218,2.395 -0.868,3.191 l 0,0 c -1.029,1.266 -4.048,4.491 -13.466,5.432 l 0,0 c -2.013,0.203 -18.89,0.272 -28.7,0.272 l 0,0 c -2.661,0 -4.802,-0.005 -5.986,-0.014"
                 id="path250"
                 style="fill:url(#linearGradient3881);stroke:none" /></g></g></g></g><g
         id="g252"><g
           clip-path="url(#clipPath256)"
           id="g254"><g
             transform="translate(212.0234,388.7734)"
             id="g260"><path
               d="m 0,0 c -12.229,0.395 -22.153,4.631 -22.153,10.341 0,5.712 9.924,9.98 22.153,10.341 2.252,0.066 4.666,0.132 6.949,0.132 2.284,0 4.698,-0.066 6.95,-0.132 C 26.129,20.321 36.053,16.053 36.053,10.341 36.053,4.631 26.127,0.395 13.899,0 11.844,-0.065 9.821,-0.132 6.949,-0.132 4.078,-0.132 2.056,-0.065 0,0 m 6.949,4.452 c 1.563,0 2.663,0.038 3.781,0.075 6.655,0.221 12.055,2.604 12.055,5.814 0,3.211 -5.399,5.61 -12.055,5.813 -1.224,0.037 -2.538,0.075 -3.781,0.075 -1.243,0 -2.556,-0.038 -3.781,-0.075 -6.654,-0.203 -12.054,-2.602 -12.054,-5.813 0,-3.21 5.401,-5.593 12.054,-5.814 C 4.286,4.49 5.387,4.452 6.949,4.452"
               id="path262"
               style="fill:#262626;fill-opacity:1;fill-rule:nonzero;stroke:none" /></g><g
             transform="translate(212.0034,388.876)"
             id="g264"><path
               d="m 0,0 c -12.164,0.392 -22.037,4.596 -22.037,10.262 0,5.668 9.872,9.904 22.037,10.262 2.24,0.066 4.642,0.132 6.913,0.132 2.272,0 4.673,-0.066 6.914,-0.132 C 25.992,20.166 35.864,15.93 35.864,10.262 35.864,4.596 25.99,0.392 13.827,0 11.782,-0.065 9.77,-0.131 6.913,-0.131 4.057,-0.131 2.045,-0.065 0,0 m 6.943,4.296 c 1.576,0 2.686,0.038 3.815,0.076 6.713,0.224 12.161,2.644 12.161,5.903 0,3.261 -5.447,5.698 -12.161,5.904 -1.236,0.037 -2.561,0.076 -3.815,0.076 -1.254,0 -2.579,-0.039 -3.815,-0.076 C -3.585,15.973 -9.033,13.536 -9.033,10.275 -9.033,7.016 -3.584,4.596 3.128,4.372 4.256,4.334 5.367,4.296 6.943,4.296"
               id="path266"
               style="fill:#313131;fill-opacity:1;fill-rule:nonzero;stroke:none" /></g><g
             transform="translate(211.9834,388.9775)"
             id="g268"><path
               d="m 0,0 c -12.1,0.389 -21.92,4.561 -21.92,10.184 0,5.625 9.819,9.828 21.92,10.183 2.229,0.065 4.617,0.131 6.876,0.131 2.261,0 4.649,-0.066 6.878,-0.131 12.101,-0.355 21.92,-4.558 21.92,-10.183 C 35.674,4.561 25.853,0.389 13.754,0 11.72,-0.064 9.718,-0.13 6.876,-0.13 4.036,-0.13 2.034,-0.064 0,0 m 6.937,4.14 c 1.59,0 2.71,0.039 3.848,0.078 6.772,0.227 12.268,2.683 12.268,5.993 0,3.31 -5.495,5.784 -12.268,5.993 -1.246,0.038 -2.583,0.077 -3.848,0.077 -1.265,0 -2.603,-0.039 -3.849,-0.077 -6.772,-0.209 -12.267,-2.683 -12.267,-5.993 0,-3.31 5.496,-5.766 12.267,-5.993 C 4.227,4.179 5.347,4.14 6.937,4.14"
               id="path270"
               style="fill:#3c3c3c;fill-opacity:1;fill-rule:nonzero;stroke:none" /></g><g
             transform="translate(211.9639,389.0801)"
             id="g272"><path
               d="m 0,0 c -12.036,0.386 -21.805,4.525 -21.805,10.104 0,5.582 9.768,9.753 21.805,10.105 2.216,0.065 4.592,0.13 6.84,0.13 2.248,0 4.624,-0.065 6.841,-0.13 C 25.717,19.857 35.485,15.686 35.485,10.104 35.485,4.525 25.715,0.386 13.681,0 11.657,-0.064 9.667,-0.129 6.84,-0.129 4.014,-0.129 2.023,-0.064 0,0 m 6.93,3.983 c 1.604,0 2.734,0.039 3.882,0.08 6.831,0.23 12.375,2.723 12.375,6.083 0,3.359 -5.543,5.87 -12.375,6.083 -1.257,0.039 -2.606,0.078 -3.882,0.078 -1.276,0 -2.625,-0.039 -3.882,-0.078 -6.832,-0.213 -12.375,-2.724 -12.375,-6.083 0,-3.36 5.544,-5.853 12.375,-6.083 1.148,-0.041 2.278,-0.08 3.882,-0.08"
               id="path274"
               style="fill:#474747;fill-opacity:1;fill-rule:nonzero;stroke:none" /></g><g
             transform="translate(211.9438,389.1826)"
             id="g276"><path
               d="m 0,0 c -11.972,0.382 -21.688,4.489 -21.688,10.025 0,5.538 9.715,9.677 21.688,10.026 2.205,0.065 4.568,0.129 6.803,0.129 2.237,0 4.6,-0.064 6.804,-0.129 C 25.58,19.702 35.296,15.563 35.296,10.025 35.296,4.489 25.579,0.382 13.607,0 11.595,-0.064 9.615,-0.129 6.803,-0.129 3.993,-0.129 2.013,-0.064 0,0 m 6.923,3.826 c 1.619,0 2.758,0.041 3.916,0.08 6.89,0.235 12.482,2.765 12.482,6.174 0,3.409 -5.591,5.957 -12.482,6.172 -1.268,0.04 -2.629,0.081 -3.916,0.081 -1.286,0 -2.647,-0.041 -3.915,-0.081 -6.89,-0.215 -12.482,-2.763 -12.482,-6.172 0,-3.409 5.593,-5.939 12.482,-6.174 1.158,-0.039 2.298,-0.08 3.915,-0.08"
               id="path278"
               style="fill:#515151;fill-opacity:1;fill-rule:nonzero;stroke:none" /></g><g
             transform="translate(211.9238,389.2842)"
             id="g280"><path
               d="m 0,0 c -11.907,0.38 -21.572,4.455 -21.572,9.947 0,5.494 9.664,9.601 21.572,9.948 2.193,0.063 4.543,0.127 6.767,0.127 2.224,0 4.575,-0.064 6.768,-0.127 C 25.443,19.548 35.106,15.441 35.106,9.947 35.106,4.455 25.441,0.38 13.535,0 11.533,-0.063 9.563,-0.127 6.767,-0.127 3.971,-0.127 2.002,-0.063 0,0 m 6.917,3.671 c 1.632,0 2.781,0.041 3.95,0.081 6.948,0.238 12.588,2.805 12.588,6.263 0,3.459 -5.639,6.045 -12.588,6.263 -1.28,0.04 -2.652,0.081 -3.95,0.081 -1.297,0 -2.67,-0.041 -3.949,-0.081 C -3.981,16.06 -9.62,13.474 -9.62,10.015 -9.62,6.557 -3.98,3.99 2.968,3.752 4.136,3.712 5.286,3.671 6.917,3.671"
               id="path282"
               style="fill:#5c5c5c;fill-opacity:1;fill-rule:nonzero;stroke:none" /></g><g
             transform="translate(211.9038,389.3867)"
             id="g284"><path
               d="m 0,0 c -11.843,0.377 -21.456,4.419 -21.456,9.868 0,5.451 9.612,9.525 21.456,9.869 2.181,0.063 4.519,0.126 6.731,0.126 2.212,0 4.55,-0.063 6.731,-0.126 C 25.306,19.393 34.917,15.319 34.917,9.868 34.917,4.419 25.305,0.377 13.462,0 11.471,-0.063 9.512,-0.126 6.731,-0.126 3.95,-0.126 1.991,-0.063 0,0 m 6.911,3.515 c 1.646,0 2.805,0.041 3.983,0.082 7.007,0.241 12.695,2.844 12.695,6.353 0,3.508 -5.687,6.131 -12.695,6.352 -1.29,0.041 -2.674,0.082 -3.983,0.082 -1.308,0 -2.693,-0.041 -3.983,-0.082 C -4.08,16.081 -9.767,13.458 -9.767,9.95 -9.767,6.441 -4.079,3.838 2.928,3.597 4.106,3.556 5.266,3.515 6.911,3.515"
               id="path286"
               style="fill:#676767;fill-opacity:1;fill-rule:nonzero;stroke:none" /></g><g
             transform="translate(211.8843,389.4893)"
             id="g288"><path
               d="m 0,0 c -11.779,0.373 -21.339,4.384 -21.339,9.789 0,5.407 9.559,9.448 21.339,9.79 2.169,0.063 4.495,0.125 6.694,0.125 2.2,0 4.526,-0.062 6.695,-0.125 C 25.168,19.237 34.728,15.196 34.728,9.789 34.728,4.384 25.167,0.373 13.389,0 11.408,-0.063 9.46,-0.126 6.694,-0.126 3.928,-0.126 1.98,-0.063 0,0 m 6.904,3.357 c 1.659,0 2.828,0.042 4.016,0.084 7.067,0.245 12.803,2.885 12.803,6.443 0,3.558 -5.735,6.218 -12.803,6.443 C 9.62,16.369 8.224,16.41 6.904,16.41 5.585,16.41 4.189,16.369 2.888,16.327 -4.18,16.102 -9.915,13.442 -9.915,9.884 -9.915,6.326 -4.179,3.686 2.888,3.441 4.076,3.399 5.245,3.357 6.904,3.357"
               id="path290"
               style="fill:#727272;fill-opacity:1;fill-rule:nonzero;stroke:none" /></g><g
             transform="translate(211.8643,389.5918)"
             id="g292"><path
               d="m 0,0 c -11.715,0.37 -21.223,4.348 -21.223,9.71 0,5.363 9.507,9.372 21.223,9.711 2.158,0.062 4.47,0.124 6.658,0.124 2.188,0 4.501,-0.062 6.658,-0.124 C 25.031,19.082 34.539,15.073 34.539,9.71 34.539,4.348 25.03,0.37 13.316,0 11.346,-0.063 9.408,-0.125 6.658,-0.125 3.907,-0.125 1.97,-0.063 0,0 m 6.897,3.201 c 1.674,0 2.853,0.042 4.051,0.085 7.125,0.247 12.909,2.925 12.909,6.533 0,3.607 -5.783,6.304 -12.909,6.532 -1.312,0.043 -2.719,0.084 -4.051,0.084 -1.329,0 -2.737,-0.041 -4.049,-0.084 -7.126,-0.228 -12.91,-2.925 -12.91,-6.532 0,-3.608 5.785,-6.286 12.91,-6.533 C 4.046,3.243 5.225,3.201 6.897,3.201"
               id="path294"
               style="fill:#7c7c7c;fill-opacity:1;fill-rule:nonzero;stroke:none" /></g><g
             transform="translate(211.8442,389.6934)"
             id="g296"><path
               d="m 0,0 c -11.65,0.368 -21.107,4.313 -21.107,9.632 0,5.32 9.456,9.296 21.107,9.632 2.146,0.062 4.446,0.124 6.622,0.124 2.175,0 4.476,-0.062 6.621,-0.124 C 24.895,18.928 34.35,14.952 34.35,9.632 34.35,4.313 24.893,0.368 13.243,0 11.284,-0.062 9.357,-0.123 6.622,-0.123 3.885,-0.123 1.959,-0.062 0,0 m 6.891,3.046 c 1.688,0 2.876,0.042 4.084,0.086 7.185,0.251 13.016,2.965 13.016,6.622 0,3.657 -5.83,6.392 -13.016,6.622 -1.322,0.043 -2.741,0.085 -4.084,0.085 -1.34,0 -2.76,-0.042 -4.083,-0.085 -7.185,-0.23 -13.016,-2.965 -13.016,-6.622 0,-3.657 5.832,-6.371 13.016,-6.622 C 4.017,3.088 5.205,3.046 6.891,3.046"
               id="path298"
               style="fill:#878787;fill-opacity:1;fill-rule:nonzero;stroke:none" /></g><g
             transform="translate(211.8242,389.7959)"
             id="g300"><path
               d="m 0,0 c -11.586,0.364 -20.99,4.277 -20.99,9.553 0,5.276 9.403,9.22 20.99,9.553 2.134,0.061 4.421,0.123 6.585,0.123 2.164,0 4.452,-0.062 6.585,-0.123 C 24.757,18.773 34.161,14.829 34.161,9.553 34.161,4.277 24.756,0.364 13.17,0 11.222,-0.062 9.305,-0.123 6.585,-0.123 3.864,-0.123 1.948,-0.062 0,0 m 6.885,2.889 c 1.701,0 2.9,0.044 4.117,0.087 7.244,0.254 13.123,3.005 13.123,6.712 0,3.708 -5.878,6.479 -13.123,6.712 -1.333,0.044 -2.764,0.087 -4.117,0.087 -1.352,0 -2.783,-0.043 -4.116,-0.087 -7.245,-0.233 -13.124,-3.004 -13.124,-6.712 0,-3.707 5.88,-6.458 13.124,-6.712 C 3.986,2.933 5.185,2.889 6.885,2.889"
               id="path302"
               style="fill:#929292;fill-opacity:1;fill-rule:nonzero;stroke:none" /></g><g
             transform="translate(211.8047,389.8984)"
             id="g304"><path
               d="m 0,0 c -11.522,0.361 -20.875,4.242 -20.875,9.474 0,5.232 9.352,9.144 20.875,9.474 2.122,0.061 4.396,0.122 6.548,0.122 2.152,0 4.428,-0.061 6.549,-0.122 C 24.62,18.618 33.971,14.706 33.971,9.474 33.971,4.242 24.619,0.361 13.097,0 11.159,-0.062 9.253,-0.122 6.548,-0.122 3.842,-0.122 1.938,-0.062 0,0 m 6.878,2.732 c 1.715,0 2.923,0.044 4.151,0.088 7.303,0.258 13.23,3.046 13.23,6.803 0,3.756 -5.926,6.565 -13.23,6.802 -1.344,0.045 -2.786,0.088 -4.151,0.088 -1.362,0 -2.805,-0.043 -4.15,-0.088 -7.304,-0.237 -13.23,-3.046 -13.23,-6.802 0,-3.757 5.927,-6.545 13.23,-6.803 1.228,-0.044 2.436,-0.088 4.15,-0.088"
               id="path306"
               style="fill:#9d9d9d;fill-opacity:1;fill-rule:nonzero;stroke:none" /></g><g
             transform="translate(211.7847,390)"
             id="g308"><path
               d="m 0,0 c -11.458,0.358 -20.758,4.207 -20.758,9.396 0,5.188 9.299,9.068 20.758,9.396 2.11,0.06 4.372,0.12 6.512,0.12 2.14,0 4.403,-0.06 6.512,-0.12 C 24.483,18.464 33.782,14.584 33.782,9.396 33.782,4.207 24.482,0.358 13.024,0 11.097,-0.061 9.202,-0.121 6.512,-0.121 3.821,-0.121 1.927,-0.061 0,0 m 6.872,2.576 c 1.729,0 2.947,0.045 4.185,0.09 7.36,0.262 13.336,3.086 13.336,6.893 0,3.806 -5.975,6.651 -13.336,6.891 -1.356,0.046 -2.81,0.089 -4.185,0.089 -1.373,0 -2.829,-0.043 -4.184,-0.089 -7.362,-0.24 -13.337,-3.085 -13.337,-6.891 0,-3.807 5.976,-6.631 13.337,-6.893 1.238,-0.045 2.456,-0.09 4.184,-0.09"
               id="path310"
               style="fill:#a8a8a8;fill-opacity:1;fill-rule:nonzero;stroke:none" /></g><g
             transform="translate(211.7646,390.1025)"
             id="g312"><path
               d="m 0,0 c -11.394,0.355 -20.642,4.172 -20.642,9.316 0,5.146 9.247,8.993 20.642,9.318 2.099,0.059 4.348,0.119 6.476,0.119 2.128,0 4.378,-0.06 6.475,-0.119 C 24.346,18.309 33.593,14.462 33.593,9.316 33.593,4.172 24.345,0.355 12.951,0 11.035,-0.061 9.15,-0.12 6.476,-0.12 3.8,-0.12 1.916,-0.061 0,0 m 6.865,2.42 c 1.743,0 2.971,0.045 4.219,0.091 7.42,0.264 13.443,3.126 13.443,6.982 0,3.856 -6.022,6.738 -13.443,6.982 -1.366,0.046 -2.832,0.089 -4.219,0.089 -1.384,0 -2.85,-0.043 -4.217,-0.089 -7.421,-0.244 -13.444,-3.126 -13.444,-6.982 0,-3.856 6.024,-6.718 13.444,-6.982 C 3.896,2.465 5.124,2.42 6.865,2.42"
               id="path314"
               style="fill:#b3b3b3;fill-opacity:1;fill-rule:nonzero;stroke:none" /></g></g></g><g
         id="g316"><g
           id="g318"><g
             id="g324"><g
               id="g326"><path
                 d="m 203.077,407.356 c -6.627,-1.325 -9.453,-3.627 -10.626,-4.8 l 0,0 c -1.175,-1.174 -1.483,-2.649 -1.217,-3.444 l 0,0 9.134,-0.011 c 0.305,2.31 1.478,3.934 4.81,5.637 l 0,0 c 3.333,1.706 8.747,1.78 12.799,1.78 l 0,0 c 4.051,0 7.424,0.002 12.164,-1.206 l 0,0 c 5.51,-1.403 6.352,-4.794 6.503,-6.158 l 0,0 8.732,0.018 c 0,0 0.242,1.166 -0.248,2.236 l 0,0 c -0.658,1.443 -1.896,3.435 -7.955,5.252 l 0,0 c -6.058,1.818 -12.171,1.92 -19.1,1.92 l 0,0 c -0.916,0 -1.735,0.002 -2.483,0.002 l 0,0 c -4.918,0 -6.762,-0.076 -12.513,-1.226"
                 id="path334"
                 style="fill:url(#linearGradient3883);stroke:none" /></g></g></g></g><g
         id="g336"><g
           id="g338"><g
             id="g344"><g
               id="g346"><path
                 d="m 191.183,399.472 c 0,-8.323 18.866,-9.709 24.923,-9.709 l 0,0 c 6.059,0 10.729,-0.046 16.647,0.97 l 0,0 c 10.072,1.732 12.3,6.335 12.623,8.555 l 0,0 -8.692,0 c -0.186,-2.544 -1.988,-5.689 -7.491,-7.03 l 0,0 c -5.503,-1.34 -21.317,-0.462 -24.369,1.018 l 0,0 c -3.051,1.48 -4.208,4.948 -4.345,6.196 l 0,0 -9.296,0 z"
                 id="path358"
                 style="fill:url(#linearGradient3885);stroke:none" /></g></g></g></g><g
         id="g360"><g
           clip-path="url(#clipPath364)"
           id="g362"><g
             transform="translate(218.75,390.876)"
             id="g368"><path
               d="m 0,0 c 12.979,0 16.553,3.494 17.533,6.312 0,0.303 -0.241,0.579 -0.551,0.579 -0.309,0 -0.437,-0.273 -0.559,-0.552 C 16.188,5.802 14.729,1.31 0,1.31 c -14.728,0 -16.188,4.492 -16.423,5.029 -0.122,0.279 -0.25,0.552 -0.559,0.552 -0.31,0 -0.551,-0.276 -0.551,-0.579 C -16.553,3.494 -12.979,0 0,0"
               id="path370"
               style="fill:#ffffff;fill-opacity:1;fill-rule:nonzero;stroke:none" /></g><g
             transform="translate(368.7471,408.1064)"
             id="g372"><path
               d="m 0,0 c 0,0.573 -0.426,1.038 -0.949,1.038 l -28.434,0.004 c -2.089,0 -4.295,0.052 -6.353,-0.013 -11.186,-0.347 -20.261,-4.467 -20.261,-9.979 0,-5.512 5.147,-9.907 20.261,-9.978 1.378,-0.007 5.274,0.017 6.353,0.017 l 27.467,-0.004 c 0.991,0 1.796,0.807 1.796,1.801 l 0,8.154 c 0,0.993 -0.805,1.799 -1.796,1.799 l -27.522,0.002 c -0.525,0 -0.951,-0.464 -0.951,-1.036 l 0,-2.366 c 0,-0.571 0.426,-1.037 0.951,-1.037 l 15.419,-0.012 c 0.526,0 0.952,-0.466 0.952,-1.037 l 0,-1.192 c 0,-0.573 -0.426,-1.038 -0.952,-1.038 l -15.119,0.004 c -1.357,0 -2.311,0.039 -3.282,0.077 -5.773,0.229 -10.458,2.533 -10.458,5.846 0,3.314 4.685,5.011 10.458,5.221 1.064,0.038 2.203,0.076 3.282,0.076 L -0.949,-3.659 C -0.426,-3.659 0,-2.965 0,-2.393 L 0,0 z"
               id="path374"
               style="fill:#262626;fill-opacity:1;fill-rule:nonzero;stroke:none" /></g><g
             transform="translate(312.8379,399.1699)"
             id="g376"><path
               d="m 0,0 c 0,-5.447 5.116,-9.759 20.146,-9.844 1.397,-0.009 5.188,0.007 6.318,0.007 l 27.315,-0.004 c 0.986,0 1.785,0.797 1.785,1.78 l 0,7.992 c 0,0.981 -0.799,1.777 -1.785,1.777 L 26.525,1.71 c -0.522,0 -0.946,-0.458 -0.946,-1.023 l 0,-2.222 c 0,-0.565 0.424,-1.025 0.946,-1.025 L 41.94,-2.573 c 0.523,0 0.947,-0.46 0.947,-1.025 l 0,-1.364 c 0,-0.566 -0.424,-1.026 -0.947,-1.026 L 26.696,-5.989 c -1.302,0 -2.282,0.041 -3.198,0.076 -5.906,0.217 -10.581,2.656 -10.581,5.93 0,3.333 4.768,5.091 10.51,5.299 1.057,0.038 2.19,0.075 3.263,0.075 L 54.74,5.385 c 0.521,0 0.945,0.672 0.945,1.237 l 0,2.248 c 0,0.567 -0.424,1.026 -0.945,1.026 L 26.464,9.9 C 24.387,9.902 22.208,9.943 20.146,9.88 8.997,9.538 0,5.372 0,0"
               id="path378"
               style="fill:#313131;fill-opacity:1;fill-rule:nonzero;stroke:none" /></g><g
             transform="translate(312.9258,399.1836)"
             id="g380"><path
               d="m 0,0 c 0,-5.383 5.085,-9.611 20.03,-9.71 1.417,-0.011 5.104,-0.003 6.284,-0.003 l 27.163,-0.003 c 0.98,0 1.776,0.787 1.776,1.758 l 0,7.829 c 0,0.97 -0.796,1.757 -1.776,1.757 L 26.491,1.63 c -0.519,0 -0.94,-0.453 -0.94,-1.012 l 0,-2.077 c 0,-0.559 0.421,-1.013 0.94,-1.013 l 15.411,-0.013 c 0.52,0 0.941,-0.454 0.941,-1.013 l 0,-1.537 c 0,-0.561 -0.421,-1.014 -0.941,-1.014 l -15.37,-0.008 c -1.247,0 -2.251,0.045 -3.113,0.077 -6.037,0.218 -10.703,2.779 -10.703,6.014 0,3.352 4.849,5.172 10.559,5.377 1.052,0.037 2.179,0.074 3.246,0.074 L 54.433,5.48 c 0.517,0 0.939,0.648 0.939,1.207 l 0,2.103 c 0,0.559 -0.422,1.013 -0.939,1.013 L 26.314,9.807 C 24.247,9.812 22.097,9.842 20.03,9.78 8.92,9.444 0,5.231 0,0"
               id="path382"
               style="fill:#3c3c3c;fill-opacity:1;fill-rule:nonzero;stroke:none" /></g><g
             transform="translate(313.0127,399.1973)"
             id="g384"><path
               d="m 0,0 c 0,-5.318 5.055,-9.463 19.916,-9.576 1.437,-0.013 5.018,-0.013 6.249,-0.013 l 27.011,-0.003 c 0.974,0 1.765,0.778 1.765,1.738 l 0,7.666 c 0,0.958 -0.791,1.735 -1.765,1.735 L 26.458,1.549 c -0.517,0 -0.936,-0.447 -0.936,-1 l 0,-1.933 c 0,-0.552 0.419,-1 0.936,-1 l 15.407,-0.013 c 0.517,0 0.936,-0.45 0.936,-1.001 l 0,-1.711 c 0,-0.553 -0.419,-1.001 -0.936,-1.001 L 26.37,-6.123 c -1.192,0 -2.222,0.047 -3.029,0.074 -6.17,0.209 -10.826,2.903 -10.826,6.1 0,3.37 4.932,5.253 10.611,5.455 1.046,0.037 2.166,0.074 3.228,0.074 L 54.126,5.574 c 0.515,0 0.934,0.625 0.934,1.177 l 0,1.958 c 0,0.553 -0.419,1.001 -0.934,1.001 L 26.165,9.715 C 24.109,9.722 21.986,9.742 19.916,9.68 8.843,9.35 0,5.09 0,0"
               id="path386"
               style="fill:#474747;fill-opacity:1;fill-rule:nonzero;stroke:none" /></g><g
             transform="translate(313.1006,399.2104)"
             id="g388"><path
               d="m 0,0 c 0,-5.253 5.023,-9.315 19.801,-9.442 1.457,-0.014 4.932,-0.022 6.214,-0.022 l 26.858,-0.003 c 0.97,0 1.757,0.768 1.757,1.716 l 0,7.504 c 0,0.946 -0.787,1.714 -1.757,1.714 L 26.424,1.469 c -0.513,0 -0.93,-0.442 -0.93,-0.988 l 0,-1.789 c 0,-0.545 0.417,-0.988 0.93,-0.988 l 15.403,-0.013 c 0.514,0 0.93,-0.444 0.93,-0.989 l 0,-1.884 c 0,-0.546 -0.416,-0.989 -0.93,-0.989 L 26.206,-6.189 c -1.138,0 -2.19,0.049 -2.943,0.073 -6.303,0.205 -10.95,3.027 -10.95,6.185 0,3.389 5.016,5.333 10.662,5.533 1.04,0.036 2.155,0.073 3.21,0.073 L 53.818,5.669 c 0.513,0 0.929,0.602 0.929,1.147 l 0,1.813 c 0,0.547 -0.416,0.99 -0.929,0.99 L 26.015,9.623 C 23.97,9.632 21.875,9.642 19.801,9.581 8.766,9.256 0,4.95 0,0"
               id="path390"
               style="fill:#515151;fill-opacity:1;fill-rule:nonzero;stroke:none" /></g><g
             transform="translate(313.1885,399.2241)"
             id="g392"><path
               d="m 0,0 c 0,-5.189 4.992,-9.167 19.686,-9.308 1.476,-0.016 4.846,-0.032 6.179,-0.032 l 26.706,-0.002 c 0.964,0 1.746,0.758 1.746,1.694 l 0,7.341 c 0,0.935 -0.782,1.694 -1.746,1.694 L 26.39,1.389 c -0.51,0 -0.925,-0.437 -0.925,-0.976 l 0,-1.646 c 0,-0.538 0.415,-0.975 0.925,-0.975 l 15.399,-0.014 c 0.511,0 0.925,-0.438 0.925,-0.976 l 0,-2.057 c 0,-0.54 -0.414,-0.977 -0.925,-0.977 L 26.043,-6.256 c -1.083,0 -2.161,0.051 -2.859,0.073 -6.436,0.197 -11.073,3.15 -11.073,6.269 0,3.407 5.099,5.414 10.713,5.611 1.034,0.036 2.143,0.072 3.192,0.072 L 53.511,5.764 c 0.51,0 0.924,0.578 0.924,1.117 l 0,1.668 c 0,0.539 -0.414,0.977 -0.924,0.977 L 25.865,9.53 C 23.831,9.542 21.764,9.541 19.686,9.481 8.688,9.163 0,4.809 0,0"
               id="path394"
               style="fill:#5c5c5c;fill-opacity:1;fill-rule:nonzero;stroke:none" /></g><g
             transform="translate(313.2764,399.2378)"
             id="g396"><path
               d="m 0,0 c 0,-5.125 4.961,-9.019 19.57,-9.174 1.496,-0.018 4.761,-0.042 6.145,-0.042 L 52.27,-9.218 c 0.958,0 1.735,0.749 1.735,1.674 l 0,7.178 c 0,0.923 -0.777,1.672 -1.735,1.672 L 26.355,1.308 c -0.506,0 -0.918,-0.432 -0.918,-0.964 l 0,-1.501 c 0,-0.532 0.412,-0.964 0.918,-0.964 l 15.396,-0.013 c 0.508,0 0.92,-0.432 0.92,-0.964 l 0,-2.231 c 0,-0.533 -0.412,-0.964 -0.92,-0.964 l -15.872,-0.03 c -1.027,0 -2.13,0.054 -2.775,0.073 -6.567,0.193 -11.194,3.272 -11.194,6.353 0,3.426 5.181,5.494 10.764,5.689 1.027,0.036 2.13,0.071 3.173,0.071 L 53.203,5.858 c 0.507,0 0.919,0.555 0.919,1.088 l 0,1.523 c 0,0.532 -0.412,0.965 -0.919,0.965 L 25.715,9.438 C 23.692,9.451 21.652,9.44 19.57,9.381 8.609,9.068 0,4.668 0,0"
               id="path398"
               style="fill:#676767;fill-opacity:1;fill-rule:nonzero;stroke:none" /></g><g
             transform="translate(313.3633,399.2515)"
             id="g400"><path
               d="m 0,0 c 0,-5.059 4.931,-8.871 19.457,-9.042 1.515,-0.018 4.675,-0.049 6.108,-0.049 l 26.403,-0.003 c 0.953,0 1.726,0.739 1.726,1.652 l 0,7.016 c 0,0.912 -0.773,1.651 -1.726,1.651 L 26.323,1.227 c -0.505,0 -0.915,-0.426 -0.915,-0.951 l 0,-1.358 c 0,-0.525 0.41,-0.951 0.915,-0.951 l 15.39,-0.013 c 0.506,0 0.915,-0.428 0.915,-0.953 l 0,-2.404 c 0,-0.525 -0.409,-0.952 -0.915,-0.952 L 25.717,-6.389 c -0.973,0 -2.101,0.055 -2.691,0.07 -6.7,0.179 -11.317,3.397 -11.317,6.439 0,3.445 5.264,5.575 10.814,5.767 1.023,0.035 2.119,0.071 3.156,0.071 L 52.896,5.953 c 0.504,0 0.914,0.531 0.914,1.057 l 0,1.379 c 0,0.526 -0.41,0.952 -0.914,0.952 L 25.565,9.345 C 23.554,9.361 21.541,9.339 19.457,9.281 8.533,8.975 0,4.528 0,0"
               id="path402"
               style="fill:#727272;fill-opacity:1;fill-rule:nonzero;stroke:none" /></g><g
             transform="translate(313.4512,399.2651)"
             id="g404"><path
               d="m 0,0 c 0,-4.995 4.899,-8.723 19.342,-8.908 1.534,-0.02 4.589,-0.059 6.073,-0.059 L 51.666,-8.97 c 0.947,0 1.716,0.73 1.716,1.632 l 0,6.853 c 0,0.9 -0.769,1.63 -1.716,1.63 L 26.289,1.146 c -0.502,0 -0.909,-0.42 -0.909,-0.938 l 0,-1.214 c 0,-0.519 0.407,-0.94 0.909,-0.94 l 15.386,-0.013 c 0.503,0 0.91,-0.421 0.91,-0.94 l 0,-2.577 c 0,-0.519 -0.407,-0.941 -0.91,-0.941 L 25.553,-6.456 c -0.917,0 -2.07,0.056 -2.606,0.07 -6.832,0.173 -11.439,3.52 -11.439,6.523 0,3.464 5.346,5.655 10.865,5.845 1.016,0.035 2.106,0.07 3.137,0.07 L 52.589,6.047 c 0.501,0 0.908,0.509 0.908,1.028 l 0,1.233 c 0,0.52 -0.407,0.941 -0.908,0.941 L 25.415,9.253 C 23.415,9.271 21.43,9.239 19.342,9.181 8.455,8.88 0,4.387 0,0"
               id="path406"
               style="fill:#7c7c7c;fill-opacity:1;fill-rule:nonzero;stroke:none" /></g><g
             transform="translate(313.5391,399.2788)"
             id="g408"><path
               d="m 0,0 c 0,-4.93 4.868,-8.575 19.227,-8.774 1.553,-0.022 4.502,-0.069 6.039,-0.069 l 26.098,-0.002 c 0.942,0 1.705,0.72 1.705,1.61 l 0,6.69 c 0,0.889 -0.763,1.609 -1.705,1.609 L 26.255,1.066 c -0.499,0 -0.904,-0.415 -0.904,-0.927 l 0,-1.07 c 0,-0.512 0.405,-0.927 0.904,-0.927 l 15.382,-0.014 c 0.5,0 0.905,-0.415 0.905,-0.927 l 0,-2.75 c 0,-0.513 -0.405,-0.928 -0.905,-0.928 L 25.39,-6.523 c -0.863,0 -2.04,0.059 -2.522,0.069 -6.965,0.161 -11.562,3.643 -11.562,6.608 0,3.482 5.428,5.736 10.917,5.924 1.009,0.034 2.092,0.068 3.118,0.068 l 26.94,-0.005 c 0.498,0 0.904,0.486 0.904,0.999 l 0,1.088 c 0,0.512 -0.406,0.928 -0.904,0.928 L 25.266,9.161 C 23.276,9.181 21.318,9.138 19.227,9.082 8.377,8.787 0,4.246 0,0"
               id="path410"
               style="fill:#878787;fill-opacity:1;fill-rule:nonzero;stroke:none" /></g><g
             transform="translate(313.627,399.292)"
             id="g412"><path
               d="m 0,0 c 0,-4.865 4.837,-8.427 19.111,-8.64 1.575,-0.023 4.418,-0.079 6.004,-0.079 l 25.947,-0.002 c 0.936,0 1.696,0.711 1.696,1.589 l 0,6.528 c 0,0.877 -0.76,1.588 -1.696,1.588 L 26.221,0.986 c -0.495,0 -0.899,-0.41 -0.899,-0.915 l 0,-0.926 c 0,-0.505 0.404,-0.915 0.899,-0.915 l 15.378,-0.013 c 0.497,0 0.899,-0.41 0.899,-0.916 l 0,-2.923 c 0,-0.506 -0.402,-0.916 -0.899,-0.916 L 25.226,-6.589 c -0.808,0 -2.009,0.06 -2.436,0.068 -7.098,0.153 -11.686,3.767 -11.686,6.692 0,3.501 5.512,5.817 10.967,6.002 1.004,0.034 2.082,0.068 3.101,0.068 L 51.974,6.236 c 0.496,0 0.898,0.462 0.898,0.969 l 0,0.943 c 0,0.506 -0.402,0.916 -0.898,0.916 L 25.115,9.068 C 23.137,9.091 21.207,9.038 19.111,8.982 8.3,8.693 0,4.106 0,0"
               id="path414"
               style="fill:#929292;fill-opacity:1;fill-rule:nonzero;stroke:none" /></g><g
             transform="translate(313.7139,399.3057)"
             id="g416"><path
               d="m 0,0 c 0,-4.801 4.807,-8.278 18.997,-8.506 1.594,-0.025 4.332,-0.089 5.969,-0.089 l 25.795,-0.002 c 0.93,0 1.685,0.701 1.685,1.569 l 0,6.365 c 0,0.865 -0.755,1.566 -1.685,1.566 L 26.188,0.905 c -0.493,0 -0.894,-0.404 -0.894,-0.903 l 0,-0.782 c 0,-0.498 0.401,-0.902 0.894,-0.902 l 15.374,-0.014 c 0.494,0 0.894,-0.405 0.894,-0.903 l 0,-3.097 c 0,-0.498 -0.4,-0.904 -0.894,-0.904 L 25.063,-6.655 c -0.752,0 -1.979,0.059 -2.351,0.066 -7.232,0.126 -11.809,3.891 -11.809,6.777 0,3.52 5.595,5.898 11.019,6.081 0.998,0.033 2.069,0.067 3.082,0.067 L 51.667,6.331 c 0.493,0 0.893,0.439 0.893,0.938 l 0,0.799 c 0,0.499 -0.4,0.903 -0.893,0.903 L 24.966,8.976 C 22.999,9.001 21.097,8.937 18.997,8.882 8.223,8.599 0,3.965 0,0"
               id="path418"
               style="fill:#9d9d9d;fill-opacity:1;fill-rule:nonzero;stroke:none" /></g><g
             transform="translate(313.8018,399.3193)"
             id="g420"><path
               d="m 0,0 c 0,-4.736 4.775,-8.131 18.882,-8.372 1.613,-0.027 4.247,-0.099 5.934,-0.099 l 25.642,-10e-4 c 0.926,0 1.677,0.692 1.677,1.546 l 0,6.203 c 0,0.854 -0.751,1.546 -1.677,1.546 L 26.153,0.825 c -0.489,0 -0.887,-0.399 -0.887,-0.891 l 0,-0.638 c 0,-0.492 0.398,-0.891 0.887,-0.891 l 15.37,-0.013 c 0.492,0 0.889,-0.399 0.889,-0.891 l 0,-3.271 c 0,-0.492 -0.397,-0.89 -0.889,-0.89 L 24.899,-6.723 c -0.697,0 -1.948,0.062 -2.266,0.067 -7.363,0.111 -11.931,4.013 -11.931,6.862 0,3.538 5.677,5.978 11.069,6.158 0.992,0.032 2.057,0.066 3.064,0.066 L 51.359,6.425 c 0.491,0 0.888,0.416 0.888,0.909 l 0,0.653 c 0,0.492 -0.397,0.892 -0.888,0.892 L 24.816,8.883 C 22.859,8.911 20.985,8.836 18.882,8.782 8.146,8.505 0,3.824 0,0"
               id="path422"
               style="fill:#a8a8a8;fill-opacity:1;fill-rule:nonzero;stroke:none" /></g><g
             transform="translate(365.8242,407.2402)"
             id="g424"><path
               d="m 0,0 c 0,0.485 -0.396,0.879 -0.883,0.879 l -26.386,0.005 c -1.945,0.029 -3.792,-0.056 -5.899,-0.109 -10.699,-0.271 -18.767,-4.999 -18.767,-8.682 0,-4.672 4.745,-7.983 18.767,-8.239 1.633,-0.029 4.161,-0.108 5.899,-0.108 l 25.491,-10e-4 c 0.92,0 1.666,0.682 1.666,1.526 l 0,6.04 c 0,0.841 -0.746,1.524 -1.666,1.524 l -24.037,0.002 c -0.487,0 -0.883,-0.394 -0.883,-0.879 l 0,-0.494 c 0,-0.485 0.396,-0.878 0.883,-0.878 l 15.366,-0.014 c 0.488,0 0.884,-0.393 0.884,-0.879 l 0,-3.443 c 0,-0.485 -0.396,-0.879 -0.884,-0.879 l -16.749,-0.067 c -0.643,0 -1.919,0.062 -2.183,0.065 -7.496,0.075 -12.054,4.137 -12.054,6.946 0,3.557 5.76,6.059 11.121,6.237 0.986,0.032 2.044,0.065 3.045,0.065 L -0.883,-1.388 C -0.396,-1.388 0,-0.995 0,-0.509 L 0,0 z"
               id="path426"
               style="fill:#b3b3b3;fill-opacity:1;fill-rule:nonzero;stroke:none" /></g><g
             transform="translate(365.8242,407.2402)"
             id="g428"><path
               d="m 0,0 c 0,0.485 -0.396,0.879 -0.883,0.879 l -26.386,0.005 c -1.945,0.029 -3.792,-0.056 -5.899,-0.109 -10.699,-0.271 -18.767,-4.999 -18.767,-8.682 0,-4.672 4.745,-7.983 18.767,-8.239 1.633,-0.029 4.161,-0.108 5.899,-0.108 l 25.491,-10e-4 c 0.92,0 1.666,0.682 1.666,1.526 l 0,6.04 c 0,0.841 -0.746,1.524 -1.666,1.524 l -24.037,0.002 c -0.487,0 -0.883,-0.394 -0.883,-0.879 l 0,-0.494 c 0,-0.485 0.396,-0.878 0.883,-0.878 l 15.366,-0.014 c 0.488,0 0.884,-0.393 0.884,-0.879 l 0,-3.443 c 0,-0.485 -0.396,-0.879 -0.884,-0.879 l -16.749,-0.067 c -0.643,0 -1.919,0.062 -2.183,0.065 -7.496,0.075 -12.054,4.137 -12.054,6.946 0,3.557 5.76,6.059 11.121,6.237 0.986,0.032 2.044,0.065 3.045,0.065 L -0.883,-1.388 C -0.396,-1.388 0,-0.995 0,-0.509 L 0,0 z"
               id="path430"
               style="fill:#b3b3b3;fill-opacity:1;fill-rule:nonzero;stroke:none" /></g><g
             transform="translate(365.8242,407.2402)"
             id="g432"><path
               d="m 0,0 c 0,0.485 -0.396,0.879 -0.883,0.879 l -26.386,0.005 c -1.945,0.029 -3.792,-0.056 -5.899,-0.109 -10.699,-0.271 -18.767,-4.999 -18.767,-8.682 0,-4.672 4.745,-7.983 18.767,-8.239 1.633,-0.029 4.161,-0.108 5.899,-0.108 l 25.491,-10e-4 c 0.92,0 1.666,0.682 1.666,1.526 l 0,6.04 c 0,0.841 -0.746,1.524 -1.666,1.524 l -24.037,0.002 c -0.487,0 -0.883,-0.394 -0.883,-0.879 l 0,-0.494 c 0,-0.485 0.396,-0.878 0.883,-0.878 l 15.366,-0.014 c 0.488,0 0.884,-0.393 0.884,-0.879 l 0,-3.443 c 0,-0.485 -0.396,-0.879 -0.884,-0.879 l -16.749,-0.067 c -0.643,0 -1.919,0.062 -2.183,0.065 -7.496,0.075 -12.054,4.137 -12.054,6.946 0,3.557 5.76,6.059 11.121,6.237 0.986,0.032 2.044,0.065 3.045,0.065 L -0.883,-1.388 C -0.396,-1.388 0,-0.995 0,-0.509 L 0,0 z"
               id="path434"
               style="fill:#b3b3b3;fill-opacity:1;fill-rule:nonzero;stroke:none" /></g><g
             transform="translate(365.8242,407.2402)"
             id="g436"><path
               d="m 0,0 c 0,0.485 -0.396,0.879 -0.883,0.879 l -26.386,0.005 c -1.945,0.029 -3.792,-0.056 -5.899,-0.109 -10.699,-0.271 -18.767,-4.999 -18.767,-8.682 0,-4.672 4.745,-7.983 18.767,-8.239 1.633,-0.029 4.161,-0.108 5.899,-0.108 l 25.491,-10e-4 c 0.92,0 1.666,0.682 1.666,1.526 l 0,6.04 c 0,0.841 -0.746,1.524 -1.666,1.524 l -24.037,0.002 c -0.487,0 -0.883,-0.394 -0.883,-0.879 l 0,-0.494 c 0,-0.485 0.396,-0.878 0.883,-0.878 l 15.366,-0.014 c 0.488,0 0.884,-0.393 0.884,-0.879 l 0,-3.443 c 0,-0.485 -0.396,-0.879 -0.884,-0.879 l -16.749,-0.067 c -0.643,0 -1.919,0.062 -2.183,0.065 -7.496,0.075 -12.054,4.137 -12.054,6.946 0,3.557 5.76,6.059 11.121,6.237 0.986,0.032 2.044,0.065 3.045,0.065 L -0.883,-1.388 C -0.396,-1.388 0,-0.995 0,-0.509 L 0,0 z"
               id="path438"
               style="fill:#b3b3b3;fill-opacity:1;fill-rule:nonzero;stroke:none" /></g><g
             transform="translate(365.8242,407.2402)"
             id="g440"><path
               d="m 0,0 c 0,0.485 -0.396,0.879 -0.883,0.879 l -26.386,0.005 c -1.945,0.029 -3.792,-0.056 -5.899,-0.109 -10.699,-0.271 -18.767,-4.999 -18.767,-8.682 0,-4.672 4.745,-7.983 18.767,-8.239 1.633,-0.029 4.161,-0.108 5.899,-0.108 l 25.491,-10e-4 c 0.92,0 1.666,0.682 1.666,1.526 l 0,6.04 c 0,0.841 -0.746,1.524 -1.666,1.524 l -24.037,0.002 c -0.487,0 -0.883,-0.394 -0.883,-0.879 l 0,-0.494 c 0,-0.485 0.396,-0.878 0.883,-0.878 l 15.366,-0.014 c 0.488,0 0.884,-0.393 0.884,-0.879 l 0,-3.443 c 0,-0.485 -0.396,-0.879 -0.884,-0.879 l -16.749,-0.067 c -0.643,0 -1.919,0.062 -2.183,0.065 -7.496,0.075 -12.054,4.137 -12.054,6.946 0,3.557 5.76,6.059 11.121,6.237 0.986,0.032 2.044,0.065 3.045,0.065 L -0.883,-1.388 C -0.396,-1.388 0,-0.995 0,-0.509 L 0,0 z"
               id="path442"
               style="fill:#b3b3b3;fill-opacity:1;fill-rule:nonzero;stroke:none" /></g><g
             transform="translate(365.8242,407.2402)"
             id="g444"><path
               d="m 0,0 c 0,0.485 -0.396,0.879 -0.883,0.879 l -26.386,0.005 c -1.945,0.029 -3.792,-0.056 -5.899,-0.109 -10.699,-0.271 -18.767,-4.999 -18.767,-8.682 0,-4.672 4.745,-7.983 18.767,-8.239 1.633,-0.029 4.161,-0.108 5.899,-0.108 l 25.491,-10e-4 c 0.92,0 1.666,0.682 1.666,1.526 l 0,6.04 c 0,0.841 -0.746,1.524 -1.666,1.524 l -24.037,0.002 c -0.487,0 -0.883,-0.394 -0.883,-0.879 l 0,-0.494 c 0,-0.485 0.396,-0.878 0.883,-0.878 l 15.366,-0.014 c 0.488,0 0.884,-0.393 0.884,-0.879 l 0,-3.443 c 0,-0.485 -0.396,-0.879 -0.884,-0.879 l -16.749,-0.067 c -0.643,0 -1.919,0.062 -2.183,0.065 -7.496,0.075 -12.054,4.137 -12.054,6.946 0,3.557 5.76,6.059 11.121,6.237 0.986,0.032 2.044,0.065 3.045,0.065 L -0.883,-1.388 C -0.396,-1.388 0,-0.995 0,-0.509 L 0,0 z"
               id="path446"
               style="fill:#b3b3b3;fill-opacity:1;fill-rule:nonzero;stroke:none" /></g><g
             transform="translate(365.8242,407.2402)"
             id="g448"><path
               d="m 0,0 c 0,0.485 -0.396,0.879 -0.883,0.879 l -26.386,0.005 c -1.945,0.029 -3.792,-0.056 -5.899,-0.109 -10.699,-0.271 -18.767,-4.999 -18.767,-8.682 0,-4.672 4.745,-7.983 18.767,-8.239 1.633,-0.029 4.161,-0.108 5.899,-0.108 l 25.491,-10e-4 c 0.92,0 1.666,0.682 1.666,1.526 l 0,6.04 c 0,0.841 -0.746,1.524 -1.666,1.524 l -24.037,0.002 c -0.487,0 -0.883,-0.394 -0.883,-0.879 l 0,-0.494 c 0,-0.485 0.396,-0.878 0.883,-0.878 l 15.366,-0.014 c 0.488,0 0.884,-0.393 0.884,-0.879 l 0,-3.443 c 0,-0.485 -0.396,-0.879 -0.884,-0.879 l -16.749,-0.067 c -0.643,0 -1.919,0.062 -2.183,0.065 -7.496,0.075 -12.054,4.137 -12.054,6.946 0,3.557 5.76,6.059 11.121,6.237 0.986,0.032 2.044,0.065 3.045,0.065 L -0.883,-1.388 C -0.396,-1.388 0,-0.995 0,-0.509 L 0,0 z"
               id="path450"
               style="fill:#b3b3b3;fill-opacity:1;fill-rule:nonzero;stroke:none" /></g><g
             transform="translate(365.8242,407.2402)"
             id="g452"><path
               d="m 0,0 c 0,0.485 -0.396,0.879 -0.883,0.879 l -26.386,0.005 c -1.945,0.029 -3.792,-0.056 -5.899,-0.109 -10.699,-0.271 -18.767,-4.999 -18.767,-8.682 0,-4.672 4.745,-7.983 18.767,-8.239 1.633,-0.029 4.161,-0.108 5.899,-0.108 l 25.491,-10e-4 c 0.92,0 1.666,0.682 1.666,1.526 l 0,6.04 c 0,0.841 -0.746,1.524 -1.666,1.524 l -24.037,0.002 c -0.487,0 -0.883,-0.394 -0.883,-0.879 l 0,-0.494 c 0,-0.485 0.396,-0.878 0.883,-0.878 l 15.366,-0.014 c 0.488,0 0.884,-0.393 0.884,-0.879 l 0,-3.443 c 0,-0.485 -0.396,-0.879 -0.884,-0.879 l -16.749,-0.067 c -0.643,0 -1.919,0.062 -2.183,0.065 -7.496,0.075 -12.054,4.137 -12.054,6.946 0,3.557 5.76,6.059 11.121,6.237 0.986,0.032 2.044,0.065 3.045,0.065 L -0.883,-1.388 C -0.396,-1.388 0,-0.995 0,-0.509 L 0,0 z"
               id="path454"
               style="fill:#b3b3b3;fill-opacity:1;fill-rule:nonzero;stroke:none" /></g><g
             transform="translate(365.8242,407.2402)"
             id="g456"><path
               d="m 0,0 c 0,0.485 -0.396,0.879 -0.883,0.879 l -26.386,0.005 c -1.945,0.029 -3.792,-0.056 -5.899,-0.109 -10.699,-0.271 -18.767,-4.999 -18.767,-8.682 0,-4.672 4.745,-7.983 18.767,-8.239 1.633,-0.029 4.161,-0.108 5.899,-0.108 l 25.491,-10e-4 c 0.92,0 1.666,0.682 1.666,1.526 l 0,6.04 c 0,0.841 -0.746,1.524 -1.666,1.524 l -24.037,0.002 c -0.487,0 -0.883,-0.394 -0.883,-0.879 l 0,-0.494 c 0,-0.485 0.396,-0.878 0.883,-0.878 l 15.366,-0.014 c 0.488,0 0.884,-0.393 0.884,-0.879 l 0,-3.443 c 0,-0.485 -0.396,-0.879 -0.884,-0.879 l -16.749,-0.067 c -0.643,0 -1.919,0.062 -2.183,0.065 -7.496,0.075 -12.054,4.137 -12.054,6.946 0,3.557 5.76,6.059 11.121,6.237 0.986,0.032 2.044,0.065 3.045,0.065 L -0.883,-1.388 C -0.396,-1.388 0,-0.995 0,-0.509 L 0,0 z"
               id="path458"
               style="fill:#b3b3b3;fill-opacity:1;fill-rule:nonzero;stroke:none" /></g><g
             transform="translate(365.8242,407.2402)"
             id="g460"><path
               d="m 0,0 c 0,0.485 -0.396,0.879 -0.883,0.879 l -26.386,0.005 c -1.945,0.029 -3.792,-0.056 -5.899,-0.109 -10.699,-0.271 -18.767,-4.999 -18.767,-8.682 0,-4.672 4.745,-7.983 18.767,-8.239 1.633,-0.029 4.161,-0.108 5.899,-0.108 l 25.491,-10e-4 c 0.92,0 1.666,0.682 1.666,1.526 l 0,6.04 c 0,0.841 -0.746,1.524 -1.666,1.524 l -24.037,0.002 c -0.487,0 -0.883,-0.394 -0.883,-0.879 l 0,-0.494 c 0,-0.485 0.396,-0.878 0.883,-0.878 l 15.366,-0.014 c 0.488,0 0.884,-0.393 0.884,-0.879 l 0,-3.443 c 0,-0.485 -0.396,-0.879 -0.884,-0.879 l -16.749,-0.067 c -0.643,0 -1.919,0.062 -2.183,0.065 -7.496,0.075 -12.054,4.137 -12.054,6.946 0,3.557 5.76,6.059 11.121,6.237 0.986,0.032 2.044,0.065 3.045,0.065 L -0.883,-1.388 C -0.396,-1.388 0,-0.995 0,-0.509 L 0,0 z"
               id="path462"
               style="fill:#b3b3b3;fill-opacity:1;fill-rule:nonzero;stroke:none" /></g><g
             transform="translate(365.8242,407.2402)"
             id="g464"><path
               d="m 0,0 c 0,0.485 -0.396,0.879 -0.883,0.879 l -26.386,0.005 c -1.945,0.029 -3.792,-0.056 -5.899,-0.109 -10.699,-0.271 -18.767,-4.999 -18.767,-8.682 0,-4.672 4.745,-7.983 18.767,-8.239 1.633,-0.029 4.161,-0.108 5.899,-0.108 l 25.491,-10e-4 c 0.92,0 1.666,0.682 1.666,1.526 l 0,6.04 c 0,0.841 -0.746,1.524 -1.666,1.524 l -24.037,0.002 c -0.487,0 -0.883,-0.394 -0.883,-0.879 l 0,-0.494 c 0,-0.485 0.396,-0.878 0.883,-0.878 l 15.366,-0.014 c 0.488,0 0.884,-0.393 0.884,-0.879 l 0,-3.443 c 0,-0.485 -0.396,-0.879 -0.884,-0.879 l -16.749,-0.067 c -0.643,0 -1.919,0.062 -2.183,0.065 -7.496,0.075 -12.054,4.137 -12.054,6.946 0,3.557 5.76,6.059 11.121,6.237 0.986,0.032 2.044,0.065 3.045,0.065 L -0.883,-1.388 C -0.396,-1.388 0,-0.995 0,-0.509 L 0,0 z"
               id="path466"
               style="fill:#b3b3b3;fill-opacity:1;fill-rule:nonzero;stroke:none" /></g><g
             transform="translate(365.8242,407.2402)"
             id="g468"><path
               d="m 0,0 c 0,0.485 -0.396,0.879 -0.883,0.879 l -26.386,0.005 c -1.945,0.029 -3.792,-0.056 -5.899,-0.109 -10.699,-0.271 -18.767,-4.999 -18.767,-8.682 0,-4.672 4.745,-7.983 18.767,-8.239 1.633,-0.029 4.161,-0.108 5.899,-0.108 l 25.491,-10e-4 c 0.92,0 1.666,0.682 1.666,1.526 l 0,6.04 c 0,0.841 -0.746,1.524 -1.666,1.524 l -24.037,0.002 c -0.487,0 -0.883,-0.394 -0.883,-0.879 l 0,-0.494 c 0,-0.485 0.396,-0.878 0.883,-0.878 l 15.366,-0.014 c 0.488,0 0.884,-0.393 0.884,-0.879 l 0,-3.443 c 0,-0.485 -0.396,-0.879 -0.884,-0.879 l -16.749,-0.067 c -0.643,0 -1.919,0.062 -2.183,0.065 -7.496,0.075 -12.054,4.137 -12.054,6.946 0,3.557 5.76,6.059 11.121,6.237 0.986,0.032 2.044,0.065 3.045,0.065 L -0.883,-1.388 C -0.396,-1.388 0,-0.995 0,-0.509 L 0,0 z"
               id="path470"
               style="fill:#b3b3b3;fill-opacity:1;fill-rule:nonzero;stroke:none" /></g><g
             transform="translate(365.8242,407.2402)"
             id="g472"><path
               d="m 0,0 c 0,0.485 -0.396,0.879 -0.883,0.879 l -26.386,0.005 c -1.945,0.029 -3.792,-0.056 -5.899,-0.109 -10.699,-0.271 -18.767,-4.999 -18.767,-8.682 0,-4.672 4.745,-7.983 18.767,-8.239 1.633,-0.029 4.161,-0.108 5.899,-0.108 l 25.491,-10e-4 c 0.92,0 1.666,0.682 1.666,1.526 l 0,6.04 c 0,0.841 -0.746,1.524 -1.666,1.524 l -24.037,0.002 c -0.487,0 -0.883,-0.394 -0.883,-0.879 l 0,-0.494 c 0,-0.485 0.396,-0.878 0.883,-0.878 l 15.366,-0.014 c 0.488,0 0.884,-0.393 0.884,-0.879 l 0,-3.443 c 0,-0.485 -0.396,-0.879 -0.884,-0.879 l -16.749,-0.067 c -0.643,0 -1.919,0.062 -2.183,0.065 -7.496,0.075 -12.054,4.137 -12.054,6.946 0,3.557 5.76,6.059 11.121,6.237 0.986,0.032 2.044,0.065 3.045,0.065 L -0.883,-1.388 C -0.396,-1.388 0,-0.995 0,-0.509 L 0,0 z"
               id="path474"
               style="fill:#b3b3b3;fill-opacity:1;fill-rule:nonzero;stroke:none" /></g><g
             transform="translate(365.8242,407.2402)"
             id="g476"><path
               d="m 0,0 c 0,0.485 -0.396,0.879 -0.883,0.879 l -26.386,0.005 c -1.945,0.029 -3.792,-0.056 -5.899,-0.109 -10.699,-0.271 -18.767,-4.999 -18.767,-8.682 0,-4.672 4.745,-7.983 18.767,-8.239 1.633,-0.029 4.161,-0.108 5.899,-0.108 l 25.491,-10e-4 c 0.92,0 1.666,0.682 1.666,1.526 l 0,6.04 c 0,0.841 -0.746,1.524 -1.666,1.524 l -24.037,0.002 c -0.487,0 -0.883,-0.394 -0.883,-0.879 l 0,-0.494 c 0,-0.485 0.396,-0.878 0.883,-0.878 l 15.366,-0.014 c 0.488,0 0.884,-0.393 0.884,-0.879 l 0,-3.443 c 0,-0.485 -0.396,-0.879 -0.884,-0.879 l -16.749,-0.067 c -0.643,0 -1.919,0.062 -2.183,0.065 -7.496,0.075 -12.054,4.137 -12.054,6.946 0,3.557 5.76,6.059 11.121,6.237 0.986,0.032 2.044,0.065 3.045,0.065 L -0.883,-1.388 C -0.396,-1.388 0,-0.995 0,-0.509 L 0,0 z"
               id="path478"
               style="fill:#b3b3b3;fill-opacity:1;fill-rule:nonzero;stroke:none" /></g></g></g><g
         id="g480"><g
           id="g482"><g
             id="g488"><g
               id="g490"><path
                 d="m 332.712,408.016 c -10.699,-0.272 -18.8,-4.419 -18.8,-9.291 l 0,0 10.523,0.034 c 0,0 0.011,0 0.011,0.356 l 0,0 c 0,3.895 5.631,6.443 10.988,6.619 l 0,0 c 0.986,0.034 2.177,0.044 3.177,0.044 l 0,0 27.108,-0.007 c 0.487,0 0.769,0.55 1.064,1.475 l 0,0 0.106,0.323 c 0,0.486 -0.386,0.552 -0.875,0.552 l 0,0 -27.403,0.003 c -0.277,0.004 -0.553,0.006 -0.828,0.006 l 0,0 c -1.649,0 -3.265,-0.069 -5.071,-0.114"
                 id="path498"
                 style="fill:url(#linearGradient3887);stroke:none" /></g></g></g></g><g
         id="g500"><g
           id="g502"><g
             id="g508"><g
               id="g510"><path
                 d="m 339.295,398.67 c -0.013,-0.432 -0.013,-0.48 -0.024,-0.559 l 0,0 c -0.048,-0.328 0.016,-0.65 0.87,-0.65 l 0,0 14.877,0 c 0.513,0 1.365,-0.253 1.365,-0.832 l 0,0 c 0,0 0.034,-3.159 0,-3.706 l 0,0 c -0.034,-0.545 0.068,-1.093 -1.434,-1.093 l 0,0 c -1.5,0 -23.12,-1.55 -26.515,1.843 l 0,0 c -1.567,1.568 -3.787,3.549 -3.991,5.393 l 0,0 -10.512,0 c 0,-8.327 14.402,-8.43 17.269,-8.43 l 0,0 c 2.865,0 31.291,-0.204 32.419,-0.204 l 0,0 c 1.126,0 2.149,0.341 2.149,1.619 l 0,0 c 0,0 0.002,5.888 0,6.265 l 0,0 c -0.002,0.34 -0.002,0.28 -0.41,0.819 l 0,0 -24.357,0.065 c -0.128,0 -1.701,-0.325 -1.706,-0.53"
                 id="path522"
                 style="fill:url(#linearGradient3889);stroke:none" /></g></g></g></g><g
         id="g524"><g
           clip-path="url(#clipPath528)"
           id="g526"><g
             transform="translate(357.3271,392.1924)"
             id="g532"><path
               d="m 0,0 c 0,-0.688 -0.133,-0.85 -1.202,-0.85 -1.962,0 -16.098,0.017 -19.146,0.017 -3.048,0 -7.909,0.523 -10.427,3.121 -0.971,1 0.024,1.049 1.112,0.28 1.09,-0.768 4.286,-2.346 9.251,-2.346 6.661,0 13.836,0.018 17.932,0.018 0.762,0 1.003,0.462 1.206,0.658 C -1.074,1.097 0,1.277 0,0"
               id="path534"
               style="fill:#ffffff;fill-opacity:1;fill-rule:nonzero;stroke:none" /></g><g
             transform="translate(365.6973,398.6309)"
             id="g536"><path
               d="m 0,0 c 0,0.588 -0.466,1.209 -1.161,1.209 l -24.657,0.002 c -0.487,0 -0.597,-0.669 -0.597,-1.19 L 0,0 z"
               id="path538"
               style="fill:#ffffff;fill-opacity:1;fill-rule:nonzero;stroke:none" /></g><g
             transform="translate(378.1006,389.2178)"
             id="g540"><path
               d="m 0,0 c -0.972,0 -1.762,0.788 -1.762,1.761 l 0,16.399 c 0,0.972 0.79,1.76 1.762,1.76 l 47.506,0.002 c 0.385,0 0.696,-0.313 0.696,-0.696 l 0,-3.17 c 0,-0.386 -0.311,-0.698 -0.696,-0.698 L 12.607,15.339 c -0.728,0 -1.319,-0.591 -1.319,-1.319 l 0,-0.712 c 0,-0.729 0.591,-1.32 1.319,-1.32 l 33.164,-0.013 c 0.385,0 0.697,-0.312 0.697,-0.697 l 0,-2.709 c 0,-0.384 -0.312,-0.697 -0.697,-0.697 L 12.54,7.869 c -0.729,0 -1.319,-0.591 -1.319,-1.318 l 0,-0.762 c 0,-0.729 0.59,-1.319 1.319,-1.319 l 35.596,0.014 c 0.385,0 0.697,-0.312 0.697,-0.697 l 0,-3.084 c 0,-0.385 -0.312,-0.696 -0.697,-0.696 L 0,0 z"
               id="path542"
               style="fill:#262626;fill-opacity:1;fill-rule:nonzero;stroke:none" /></g><g
             transform="translate(378.2197,389.3428)"
             id="g544"><path
               d="m 0,0 c -0.966,0 -1.751,0.785 -1.751,1.754 l 0,16.193 c 0,0.968 0.785,1.753 1.751,1.753 l 47.217,0 c 0.382,0 0.691,-0.311 0.691,-0.694 l 0,-2.969 c 0,-0.384 -0.309,-0.694 -0.691,-0.694 l -34.92,-0.018 c -0.725,0 -1.312,-0.588 -1.312,-1.314 l 0,-0.905 c 0,-0.726 0.587,-1.314 1.312,-1.314 L 45.493,11.78 c 0.382,0 0.692,-0.31 0.692,-0.694 l 0,-2.53 c 0,-0.384 -0.31,-0.695 -0.692,-0.695 L 12.229,7.858 c -0.724,0 -1.31,-0.588 -1.31,-1.314 L 10.911,5.579 c 0,-0.726 0.594,-1.309 1.318,-1.309 l 35.614,0.012 c 0.382,0 0.692,-0.31 0.692,-0.694 l 0,-2.888 c 0,-0.383 -0.31,-0.693 -0.692,-0.693 L 0,0 z"
               id="path546"
               style="fill:#313131;fill-opacity:1;fill-rule:nonzero;stroke:none" /></g><g
             transform="translate(378.3379,389.4678)"
             id="g548"><path
               d="m 0,0 c -0.96,0 -1.74,0.782 -1.74,1.747 l 0,15.986 c 0,0.964 0.78,1.746 1.74,1.746 l 46.928,-10e-4 c 0.38,0 0.688,-0.311 0.688,-0.691 l 0,-2.768 c 0,-0.383 -0.308,-0.692 -0.688,-0.692 L 11.987,15.312 c -0.719,0 -1.303,-0.586 -1.303,-1.31 l 0,-1.098 c 0,-0.723 0.584,-1.309 1.303,-1.309 l 33.228,-0.01 c 0.38,0 0.687,-0.309 0.687,-0.691 l 0,-2.352 C 45.902,8.16 45.595,7.85 45.215,7.85 L 11.921,7.847 C 11.2,7.847 10.617,7.26 10.617,6.539 L 10.603,5.368 c 0,-0.723 0.597,-1.298 1.318,-1.298 l 35.63,0.011 c 0.38,0 0.688,-0.31 0.688,-0.692 l 0,-2.692 c 0,-0.382 -0.308,-0.69 -0.688,-0.69 L 0,0 z"
               id="path550"
               style="fill:#3c3c3c;fill-opacity:1;fill-rule:nonzero;stroke:none" /></g><g
             transform="translate(378.457,389.5928)"
             id="g552"><path
               d="m 0,0 c -0.954,0 -1.729,0.778 -1.729,1.74 l 0,15.78 c 0,0.96 0.775,1.739 1.729,1.739 l 46.639,-0.003 c 0.378,0 0.683,-0.309 0.683,-0.689 l 0,-2.567 c 0,-0.38 -0.305,-0.688 -0.683,-0.688 L 11.677,15.298 c -0.716,0 -1.296,-0.584 -1.296,-1.304 l 0,-1.292 c 0,-0.72 0.58,-1.304 1.296,-1.304 l 33.26,-0.008 c 0.376,0 0.682,-0.307 0.682,-0.688 l 0,-2.174 c 0,-0.381 -0.306,-0.69 -0.682,-0.69 L 11.61,7.835 c -0.715,0 -1.295,-0.584 -1.295,-1.303 L 10.293,5.158 c 0,-0.72 0.602,-1.288 1.317,-1.288 l 35.648,0.009 c 0.377,0 0.683,-0.309 0.683,-0.69 l 0,-2.495 c 0,-0.38 -0.306,-0.687 -0.683,-0.687 L 0,0 z"
               id="path554"
               style="fill:#474747;fill-opacity:1;fill-rule:nonzero;stroke:none" /></g><g
             transform="translate(378.5752,389.7178)"
             id="g556"><path
               d="m 0,0 c -0.948,0 -1.718,0.775 -1.718,1.733 l 0,15.573 c 0,0.957 0.77,1.733 1.718,1.733 l 46.35,-0.005 c 0.376,0 0.679,-0.308 0.679,-0.686 l 0,-2.366 c 0,-0.379 -0.303,-0.687 -0.679,-0.687 l -34.984,-0.01 c -0.71,0 -1.287,-0.582 -1.287,-1.3 l 0,-1.485 c 0,-0.717 0.577,-1.298 1.287,-1.298 l 33.292,-0.007 c 0.375,0 0.679,-0.306 0.679,-0.685 l 0,-1.996 c 0,-0.379 -0.304,-0.687 -0.679,-0.687 L 11.301,7.824 c -0.711,0 -1.287,-0.581 -1.287,-1.298 L 9.985,4.948 c 0,-0.718 0.605,-1.277 1.316,-1.277 l 35.664,0.007 c 0.376,0 0.681,-0.308 0.681,-0.687 l 0,-2.299 c 0,-0.379 -0.305,-0.686 -0.681,-0.686 L 0,0 z"
               id="path558"
               style="fill:#515151;fill-opacity:1;fill-rule:nonzero;stroke:none" /></g><g
             transform="translate(378.6943,389.8428)"
             id="g560"><path
               d="m 0,0 c -0.942,0 -1.708,0.772 -1.708,1.727 l 0,15.366 c 0,0.953 0.766,1.726 1.708,1.726 l 46.061,-0.007 c 0.373,0 0.675,-0.307 0.675,-0.684 l 0,-2.164 c 0,-0.378 -0.302,-0.684 -0.675,-0.684 L 11.056,15.271 c -0.706,0 -1.28,-0.58 -1.28,-1.294 l 0,-1.678 c 0,-0.715 0.574,-1.294 1.28,-1.294 L 44.38,11 c 0.372,0 0.674,-0.305 0.674,-0.682 l 0,-1.818 c 0,-0.378 -0.302,-0.684 -0.674,-0.684 L 10.991,7.813 C 10.284,7.813 9.712,7.233 9.712,6.52 L 9.676,4.737 c 0,-0.715 0.608,-1.266 1.315,-1.266 l 35.681,0.005 c 0.373,0 0.676,-0.307 0.676,-0.684 l 0,-2.103 c 0,-0.377 -0.303,-0.683 -0.676,-0.683 L 0,0 z"
               id="path562"
               style="fill:#5c5c5c;fill-opacity:1;fill-rule:nonzero;stroke:none" /></g><g
             transform="translate(378.8135,389.9678)"
             id="g564"><path
               d="m 0,0 c -0.937,0 -1.697,0.77 -1.697,1.72 l 0,15.159 c 0,0.95 0.76,1.72 1.697,1.72 l 45.771,-0.01 c 0.371,0 0.671,-0.305 0.671,-0.68 l 0,-1.964 c 0,-0.376 -0.3,-0.681 -0.671,-0.681 L 10.745,15.257 c -0.702,0 -1.271,-0.577 -1.271,-1.289 l 0,-1.871 c 0,-0.712 0.569,-1.289 1.271,-1.289 l 33.356,-0.002 c 0.37,0 0.67,-0.305 0.67,-0.68 l 0,-1.64 c 0,-0.376 -0.3,-0.681 -0.67,-0.681 L 10.681,7.802 C 9.979,7.802 9.409,7.225 9.409,6.514 L 9.366,4.527 c 0,-0.712 0.613,-1.256 1.315,-1.256 l 35.698,0.002 c 0.37,0 0.672,-0.304 0.672,-0.68 l 0,-1.906 c 0,-0.376 -0.302,-0.681 -0.672,-0.681 L 0,0 z"
               id="path566"
               style="fill:#676767;fill-opacity:1;fill-rule:nonzero;stroke:none" /></g><g
             transform="translate(378.9316,390.0928)"
             id="g568"><path
               d="m 0,0 c -0.931,0 -1.686,0.766 -1.686,1.714 l 0,14.952 c 0,0.946 0.755,1.712 1.686,1.712 l 45.482,-0.01 c 0.37,0 0.667,-0.305 0.667,-0.679 l 0,-1.762 c 0,-0.375 -0.297,-0.678 -0.667,-0.678 L 10.436,15.244 c -0.698,0 -1.263,-0.576 -1.263,-1.285 l 0,-2.064 c 0,-0.709 0.565,-1.283 1.263,-1.283 l 33.387,-10e-4 c 0.366,0 0.666,-0.303 0.666,-0.677 l 0,-1.462 c 0,-0.375 -0.3,-0.678 -0.666,-0.678 L 10.371,7.79 C 9.673,7.79 9.108,7.216 9.108,6.508 L 9.058,4.317 c 0,-0.709 0.615,-1.246 1.313,-1.246 l 35.716,10e-4 c 0.368,0 0.667,-0.303 0.667,-0.678 l 0,-1.71 c 0,-0.374 -0.299,-0.678 -0.667,-0.678 L 0,0 z"
               id="path570"
               style="fill:#727272;fill-opacity:1;fill-rule:nonzero;stroke:none" /></g><g
             transform="translate(379.0508,390.2178)"
             id="g572"><path
               d="m 0,0 c -0.925,0 -1.675,0.763 -1.675,1.707 l 0,14.745 c 0,0.943 0.75,1.706 1.675,1.706 l 45.193,-0.012 c 0.367,0 0.662,-0.303 0.662,-0.676 l 0,-1.562 c 0,-0.373 -0.295,-0.675 -0.662,-0.675 L 10.125,15.23 C 9.432,15.23 8.87,14.657 8.87,13.951 l 0,-2.258 c 0,-0.706 0.562,-1.278 1.255,-1.278 l 33.419,0.002 c 0.364,0 0.662,-0.303 0.662,-0.675 l 0,-1.284 c 0,-0.373 -0.298,-0.675 -0.662,-0.675 L 10.061,7.779 C 9.367,7.779 8.806,7.207 8.806,6.501 L 8.748,4.107 c 0,-0.706 0.619,-1.236 1.313,-1.236 L 45.794,2.87 c 0.365,0 0.663,-0.302 0.663,-0.676 l 0,-1.513 c 0,-0.372 -0.298,-0.675 -0.663,-0.675 L 0,0 z"
               id="path574"
               style="fill:#7c7c7c;fill-opacity:1;fill-rule:nonzero;stroke:none" /></g><g
             transform="translate(379.1699,390.3428)"
             id="g576"><path
               d="m 0,0 c -0.919,0 -1.665,0.76 -1.665,1.7 l 0,14.539 c 0,0.938 0.746,1.699 1.665,1.699 l 44.904,-0.015 c 0.364,0 0.659,-0.301 0.659,-0.672 l 0,-1.361 c 0,-0.371 -0.295,-0.673 -0.659,-0.673 L 9.814,15.216 c -0.689,0 -1.247,-0.57 -1.247,-1.274 l 0,-2.45 c 0,-0.704 0.558,-1.274 1.247,-1.274 l 33.452,0.004 c 0.361,0 0.657,-0.301 0.657,-0.672 l 0,-1.106 c 0,-0.372 -0.296,-0.673 -0.657,-0.673 L 9.751,7.768 C 9.062,7.768 8.504,7.198 8.504,6.495 L 8.438,3.896 c 0,-0.703 0.624,-1.225 1.313,-1.225 l 35.75,-0.003 c 0.362,0 0.658,-0.301 0.658,-0.673 l 0,-1.317 c 0,-0.371 -0.296,-0.672 -0.658,-0.672 L 0,0 z"
               id="path578"
               style="fill:#878787;fill-opacity:1;fill-rule:nonzero;stroke:none" /></g><g
             transform="translate(379.2881,390.4678)"
             id="g580"><path
               d="m 0,0 c -0.913,0 -1.653,0.757 -1.653,1.693 l 0,14.332 c 0,0.935 0.74,1.692 1.653,1.692 l 44.615,-0.016 c 0.362,0 0.655,-0.3 0.655,-0.67 l 0,-1.159 c 0,-0.371 -0.293,-0.671 -0.655,-0.671 L 9.504,15.203 c -0.684,0 -1.238,-0.568 -1.238,-1.269 l 0,-2.644 c 0,-0.701 0.554,-1.269 1.238,-1.269 l 33.483,0.006 c 0.36,0 0.654,-0.3 0.654,-0.67 l 0,-0.927 c 0,-0.37 -0.294,-0.67 -0.654,-0.67 L 9.441,7.756 C 8.757,7.756 8.202,7.189 8.202,6.489 L 8.131,3.687 c 0,-0.701 0.626,-1.215 1.31,-1.215 L 45.208,2.467 c 0.361,0 0.655,-0.3 0.655,-0.67 l 0,-1.121 c 0,-0.37 -0.294,-0.671 -0.655,-0.671 L 0,0 z"
               id="path582"
               style="fill:#929292;fill-opacity:1;fill-rule:nonzero;stroke:none" /></g><g
             transform="translate(379.4072,390.5928)"
             id="g584"><path
               d="m 0,0 c -0.907,0 -1.643,0.753 -1.643,1.687 l 0,14.125 c 0,0.931 0.736,1.685 1.643,1.685 l 44.326,-0.018 c 0.36,0 0.65,-0.299 0.65,-0.667 l 0,-0.959 c 0,-0.368 -0.29,-0.667 -0.65,-0.667 L 9.193,15.189 c -0.679,0 -1.23,-0.566 -1.23,-1.264 l 0,-2.837 c 0,-0.698 0.551,-1.263 1.23,-1.263 l 33.516,0.007 c 0.356,0 0.648,-0.298 0.648,-0.666 l 0,-0.749 c 0,-0.37 -0.292,-0.668 -0.648,-0.668 L 9.131,7.745 C 8.451,7.745 7.9,7.18 7.9,6.483 L 7.821,3.477 c 0,-0.698 0.63,-1.206 1.31,-1.206 L 44.915,2.265 c 0.358,0 0.65,-0.298 0.65,-0.667 l 0,-0.925 c 0,-0.368 -0.292,-0.668 -0.65,-0.668 L 0,0 z"
               id="path586"
               style="fill:#9d9d9d;fill-opacity:1;fill-rule:nonzero;stroke:none" /></g><g
             transform="translate(379.5254,390.7178)"
             id="g588"><path
               d="m 0,0 c -0.901,0 -1.632,0.75 -1.632,1.68 l 0,13.918 c 0,0.928 0.731,1.679 1.632,1.679 l 44.037,-0.02 c 0.358,0 0.647,-0.298 0.647,-0.665 l 0,-0.757 c 0,-0.367 -0.289,-0.665 -0.647,-0.665 L 8.884,15.176 c -0.675,0 -1.223,-0.564 -1.223,-1.259 l 0,-3.031 c 0,-0.695 0.548,-1.258 1.223,-1.258 l 33.547,0.009 c 0.354,0 0.644,-0.297 0.644,-0.664 l 0,-0.571 c 0,-0.367 -0.29,-0.664 -0.644,-0.664 L 8.822,7.734 C 8.146,7.734 7.599,7.171 7.599,6.477 L 7.513,3.266 c 0,-0.695 0.633,-1.194 1.309,-1.194 L 44.623,2.063 c 0.356,0 0.647,-0.297 0.647,-0.665 l 0,-0.728 c 0,-0.367 -0.291,-0.665 -0.647,-0.665 L 0,0 z"
               id="path590"
               style="fill:#a8a8a8;fill-opacity:1;fill-rule:nonzero;stroke:none" /></g><g
             transform="translate(379.6445,390.8428)"
             id="g592"><path
               d="m 0,0 c -0.896,0 -1.621,0.747 -1.621,1.673 l 0,13.712 c 0,0.924 0.725,1.672 1.621,1.672 l 43.748,-0.022 c 0.355,0 0.642,-0.297 0.642,-0.662 l 0,-0.557 c 0,-0.365 -0.287,-0.662 -0.642,-0.662 L 8.573,15.162 c -0.671,0 -1.215,-0.561 -1.215,-1.254 l 0,-3.223 c 0,-0.693 0.544,-1.253 1.215,-1.253 l 33.579,0.01 c 0.352,0 0.64,-0.296 0.64,-0.661 l 0,-0.392 c 0,-0.367 -0.288,-0.662 -0.64,-0.662 L 8.512,7.723 C 7.841,7.723 7.297,7.162 7.297,6.471 L 7.203,3.056 c 0,-0.692 0.638,-1.184 1.309,-1.184 L 44.33,1.861 c 0.354,0 0.642,-0.296 0.642,-0.662 l 0,-0.532 c 0,-0.365 -0.288,-0.662 -0.642,-0.662 L 0,0 z"
               id="path594"
               style="fill:#b3b3b3;fill-opacity:1;fill-rule:nonzero;stroke:none" /></g></g></g><g
         id="g596"><g
           id="g598"><g
             id="g604"><g
               id="g606"><path
                 d="m 378.031,406.309 0.487,-7.337 9.643,-0.806 33.641,0.003 c 0.354,0 0.554,0.261 0.764,0.662 l 0,0 0.174,0.361 0.242,0.7 c 0.121,0.433 -0.288,0.662 -0.641,0.662 l 0,0 -34.119,-0.012 c -0.669,0 -1.214,0.562 -1.214,1.254 l 0,0 0,2.777 c 0,0.692 0.545,1.251 1.214,1.251 l 0,0 35.177,-0.006 c 0.354,0 0.53,0.311 0.735,0.671 l 0,0 0.444,1.027 c 0.158,0.441 -0.286,0.663 -0.639,0.663 l 0,0 -44.289,0.022 c -0.893,0 -1.619,-0.97 -1.619,-1.892"
                 id="path614"
                 style="fill:url(#linearGradient3891);stroke:none" /></g></g></g></g><g
         id="g616"><g
           id="g618"><g
             id="g624"><g
               id="g626"><path
                 d="m 378.518,398.972 c 0,0 -0.446,-4.52 -0.521,-6.317 l 0,0 c -0.074,-1.796 0.674,-1.87 2.396,-1.87 l 0,0 42.959,0 c 0.897,0 0.863,0.058 1.191,0.601 l 0,0 c 0.308,0.505 0.606,1.299 0.471,1.436 l 0,0 c 0,0 -34.441,-0.465 -35.715,-0.465 l 0,0 c -1.27,0 -2.434,0.223 -2.434,1.235 l 0,0 0,3.415 c 0,0.756 0.115,1.113 1.537,1.113 l 0,0 32.786,0 c 0.973,0 1.112,0.075 1.466,0.852 l 0,0 -44.136,0 z"
                 id="path638"
                 style="fill:url(#linearGradient3893);stroke:none" /></g></g></g></g><g
         id="g640"><g
           clip-path="url(#clipPath644)"
           id="g642"><g
             transform="translate(424.5176,393.0625)"
             id="g648"><path
               d="m 0,0 -35.335,0.012 c -0.751,0.008 -0.99,0.485 -1.189,0.681 -0.203,0.198 -1.275,0.379 -1.275,-0.897 0,-0.689 0.134,-1.196 1.201,-1.196 1.063,0 5.702,0.006 10.212,0.009 10.355,0.006 24.79,0.009 25.062,0.009 0.424,0 1.082,-0.046 1.27,0.142 0.189,0.188 0.248,0.329 0.535,0.721 C 0.676,-0.148 0.354,0 0,0"
               id="path650"
               style="fill:#ffffff;fill-opacity:1;fill-rule:nonzero;stroke:none" /></g></g></g></g></g></svg>