<?xml version="1.0" encoding="UTF-8" standalone="no"?>
<svg
   style="display: block;"
   width="100%"
   viewBox="0 0 117 24"
   fill="none"
   role="img"
   version="1.1"
   id="svg6"
   sodipodi:docname="Genesis.svg"
   inkscape:version="1.2 (dc2aeda, 2022-05-15)"
   xmlns:inkscape="http://www.inkscape.org/namespaces/inkscape"
   xmlns:sodipodi="http://sodipodi.sourceforge.net/DTD/sodipodi-0.dtd"
   xmlns="http://www.w3.org/2000/svg"
   xmlns:svg="http://www.w3.org/2000/svg">
  <defs
     id="defs10" />
  <sodipodi:namedview
     id="namedview8"
     pagecolor="#ffffff"
     bordercolor="#000000"
     borderopacity="0.25"
     inkscape:showpageshadow="2"
     inkscape:pageopacity="0.0"
     inkscape:pagecheckerboard="0"
     inkscape:deskcolor="#d1d1d1"
     showgrid="false"
     inkscape:zoom="10.649573"
     inkscape:cx="33.522472"
     inkscape:cy="11.972311"
     inkscape:window-width="1390"
     inkscape:window-height="1205"
     inkscape:window-x="0"
     inkscape:window-y="25"
     inkscape:window-maximized="0"
     inkscape:current-layer="svg6" />
  <title
     id="title2">Genesis Logo</title>
  <path
     d="M28.6585 13.3376C29.3559 11.7766 30.8183 10.714 32.7444 10.714C34.6705 10.714 36.0983 11.6105 36.697 13.3376H28.6585ZM32.7098 6.72678C27.9264 6.72678 24.0742 10.5808 24.0742 15.3624C24.0742 20.1457 27.6617 23.998 32.843 23.998C36.5292 23.998 39.1545 22.1705 40.5822 19.5798L36.9618 17.4201C36.2298 19.0157 34.7017 20.0125 32.8759 20.0125C30.4842 20.0125 28.989 18.8166 28.4577 16.9891H41.2779V15.3295C41.2796 10.5462 37.7925 6.72678 32.7098 6.72678ZM52.3883 6.72678C50.495 6.72678 48.8665 7.55746 47.8039 8.91943V7.05905H43.2854V23.6675H47.8368V14.5992C47.8368 11.8095 49.2645 10.6137 50.9917 10.6137C53.0182 10.6137 54.0479 11.9099 54.0479 14.1337V23.6675H58.6651V13.5366C58.6651 9.25171 56.3063 6.72678 52.3883 6.72678ZM65.1721 13.3376C65.8695 11.7766 67.3319 10.714 69.258 10.714C71.1841 10.714 72.6119 11.6105 73.2106 13.3376H65.1721ZM69.2251 6.72678C64.4418 6.72678 60.5895 10.5808 60.5895 15.3624C60.5895 20.1457 64.177 23.998 69.3584 23.998C73.0462 23.998 75.6698 22.1705 77.0993 19.5798L73.4789 17.4201C72.7486 19.0157 71.2205 20.0125 69.393 20.0125C67.0013 20.0125 65.5061 18.8166 64.9748 16.9891H77.7967V15.3295C77.795 10.5462 74.3061 6.72678 69.2251 6.72678ZM87.5745 13.3047C85.0825 12.8063 84.1203 12.5398 84.1203 11.8112C84.1203 11.0809 84.7848 10.4493 86.28 10.4493C87.7752 10.4493 88.9036 11.1796 89.3362 12.275L93.3564 10.5808C92.1606 8.25489 90.0337 6.69736 86.3146 6.72678C82.1958 6.76139 79.5048 9.15133 79.5048 11.941C79.5048 15.4957 82.497 16.508 85.484 17.0584C87.4136 17.4114 89.0386 17.6883 89.0386 18.5865C89.0386 19.3825 88.2408 20.08 86.7456 20.08C85.1188 20.08 83.8555 19.3497 83.2584 17.8216L78.9077 19.5158C80.1036 22.4388 82.5281 23.9721 86.5483 23.9997C91.3316 24.0326 93.59 20.8778 93.59 18.4532C93.5865 14.8657 90.3625 13.8689 87.5745 13.3047ZM95.421 23.6675H99.9707V7.05905H95.421V23.6675ZM110.326 13.3047C107.834 12.8063 106.872 12.5398 106.872 11.8112C106.872 11.0809 107.537 10.4493 109.03 10.4493C110.526 10.4493 111.654 11.1796 112.087 12.275L116.105 10.5808C114.911 8.25489 112.786 6.69736 109.065 6.72678C104.944 6.76139 102.255 9.15133 102.255 11.941C102.255 15.4957 105.247 16.508 108.232 17.0584C110.162 17.4114 111.787 17.6883 111.787 18.5865C111.787 19.3825 110.991 20.08 109.496 20.08C107.867 20.08 106.606 19.3497 106.007 17.8216L101.656 19.5158C102.854 22.4388 105.277 23.9721 109.297 23.9997C114.08 24.0326 116.339 20.8778 116.339 18.4532C116.339 14.8657 113.116 13.8689 110.326 13.3047ZM12.282 10.0062V14.8294H17.2384V10.0062H12.282ZM17.2384 18.031C15.93 18.9741 14.2341 19.4656 12.3408 19.4656C8.15798 19.4656 5.21598 16.3038 5.21598 11.9999V11.9341C5.21598 7.933 8.19951 4.59816 11.9774 4.59816C14.6927 4.59816 16.3038 5.47038 18.0933 6.96733L21.236 3.18081C18.8184 1.12661 16.3021 0 12.1418 0C5.11907 0 0 5.415 0 11.9999V12.0656C0 18.9153 4.94774 23.9997 12.1781 23.9997C16.4059 23.9997 19.6871 22.3418 22.0632 20.3274V14.8294H17.2384V18.031ZM95.421 0.970858V5.39942H99.9707V0.970858H95.421Z"
     fill="CurrentColor"
     id="path4"
     style="fill:#000000;fill-opacity:1" />
</svg>
