<?xml version="1.0" encoding="UTF-8" standalone="no"?>
<!-- Generator: Adobe Illustrator 12.0.0, SVG Export Plug-In . SVG Version: 6.00 Build 51448)  -->
<svg
   xmlns:dc="http://purl.org/dc/elements/1.1/"
   xmlns:cc="http://web.resource.org/cc/"
   xmlns:rdf="http://www.w3.org/1999/02/22-rdf-syntax-ns#"
   xmlns:svg="http://www.w3.org/2000/svg"
   xmlns="http://www.w3.org/2000/svg"
   xmlns:sodipodi="http://sodipodi.sourceforge.net/DTD/sodipodi-0.dtd"
   xmlns:inkscape="http://www.inkscape.org/namespaces/inkscape"
   version="1.0"
   id="Layer_1"
   width="192.756"
   height="192.756"
   viewBox="0 0 192.756 192.756"
   overflow="hidden"
   enable-background="new 0 0 192.756 192.756"
   xml:space="preserve"
   sodipodi:version="0.32"
   inkscape:version="0.45.1"
   sodipodi:docname="Hummer.svg"
   inkscape:output_extension="org.inkscape.output.svg.inkscape"
   sodipodi:docbase="C:\Users\Virgile"><metadata
   id="metadata2610"><rdf:RDF><cc:Work
       rdf:about=""><dc:format>image/svg+xml</dc:format><dc:type
         rdf:resource="http://purl.org/dc/dcmitype/StillImage" /></cc:Work></rdf:RDF></metadata><defs
   id="defs2608" /><sodipodi:namedview
   inkscape:window-height="1000"
   inkscape:window-width="1400"
   inkscape:pageshadow="2"
   inkscape:pageopacity="0.0"
   guidetolerance="10.0"
   gridtolerance="10.0"
   objecttolerance="10.0"
   borderopacity="1.0"
   bordercolor="#666666"
   pagecolor="#ffffff"
   id="base"
   showguides="true"
   inkscape:guide-bbox="true"
   inkscape:zoom="5.5319525"
   inkscape:cx="96.377998"
   inkscape:cy="48.687387"
   inkscape:window-x="-8"
   inkscape:window-y="-8"
   inkscape:current-layer="Layer_1" />

<g
   id="g2587"
   transform="matrix(9.5989247,0,0,9.5989247,-828.97091,-828.83678)">
	
	<polygon
   clip-rule="evenodd"
   points="19.662,94.164 14.175,94.164 14.175,86.574 2.834,86.574 2.834,106.418 14.175,106.418 14.175,98.736 19.662,98.736 19.662,106.418 31.001,106.418 31.001,86.574 19.662,86.574 19.662,94.164 "
   id="polygon2591"
   style="fill-rule:evenodd" />
	<path
   clip-rule="evenodd"
   d="M 49.655,99.834 C 49.655,101.205 48.832,102.76 46.82,102.76 C 44.808,102.76 43.985,101.205 43.985,99.834 L 43.985,86.574 L 32.645,86.574 L 32.645,100.018 C 32.645,102.03 34.382,106.418 40.875,106.418 L 52.764,106.418 C 59.257,106.418 60.994,102.029 60.994,100.018 L 60.994,86.574 L 49.654,86.574 L 49.654,99.834 L 49.655,99.834 z "
   id="path2593"
   style="fill-rule:evenodd" />
	<polygon
   clip-rule="evenodd"
   points="79.925,94.621 75.444,86.574 62.458,86.574 62.458,106.418 72.884,106.418 72.884,97.914 77.547,106.418 82.303,106.418 86.967,97.914 86.967,106.418 97.392,106.418 97.392,86.574 84.406,86.574 79.925,94.621 "
   id="polygon2595"
   style="fill-rule:evenodd" />
	<polygon
   clip-rule="evenodd"
   points="116.322,94.621 111.842,86.574 98.855,86.574 98.855,106.418 109.281,106.418 109.281,97.914 113.945,106.418 118.7,106.418 123.364,97.914 123.364,106.418 133.79,106.418 133.79,86.574 120.804,86.574 116.322,94.621 "
   id="polygon2597"
   style="fill-rule:evenodd" />
	<polygon
   clip-rule="evenodd"
   points="135.072,106.418 157.203,106.418 157.203,100.932 146.777,100.932 146.777,98.736 157.203,98.736 157.203,94.164 146.777,94.164 146.777,92.061 157.203,92.061 157.203,86.574 135.072,86.574 135.072,106.418 "
   id="polygon2599"
   style="fill-rule:evenodd" />
	<path
   clip-rule="evenodd"
   d="M 187.199,93.158 C 187.199,90.689 185.644,86.574 181.255,86.574 L 158.667,86.574 L 158.667,106.418 L 170.007,106.418 L 170.007,100.656 L 174.854,106.418 L 188.846,106.418 L 182.901,99.377 C 185.278,99.469 187.199,95.627 187.199,93.158 L 187.199,93.158 z M 173.115,95.718 L 170.007,95.718 L 170.007,91.237 L 173.482,91.237 C 176.316,91.237 176.042,95.718 173.115,95.718 L 173.115,95.718 z "
   id="path2601"
   style="fill-rule:evenodd" />
	<path
   clip-rule="evenodd"
   d="M 188.245,86.337 C 187.332,86.337 186.559,87.04 186.559,87.992 C 186.559,88.953 187.331,89.655 188.245,89.655 C 189.148,89.655 189.921,88.953 189.921,87.992 C 189.921,87.04 189.148,86.337 188.245,86.337 L 188.245,86.337 z M 188.245,89.379 C 187.485,89.379 186.892,88.791 186.892,87.992 C 186.892,87.206 187.485,86.613 188.245,86.613 C 188.995,86.613 189.588,87.206 189.588,87.992 C 189.588,88.791 188.995,89.379 188.245,89.379 L 188.245,89.379 z "
   id="path2603"
   style="fill-rule:evenodd" />
	<path
   clip-rule="evenodd"
   d="M 189.008,87.584 C 189.008,87.207 188.784,87.04 188.332,87.04 L 187.603,87.04 L 187.603,88.954 L 187.893,88.954 L 187.893,88.124 L 188.226,88.124 L 188.732,88.954 L 189.056,88.954 L 188.512,88.111 C 188.793,88.076 189.008,87.926 189.008,87.584 L 189.008,87.584 z M 187.894,87.878 L 187.894,87.285 L 188.289,87.285 C 188.491,87.285 188.706,87.329 188.706,87.566 C 188.706,87.86 188.487,87.878 188.241,87.878 L 187.894,87.878 L 187.894,87.878 z "
   id="path2605"
   style="fill-rule:evenodd" />
</g></svg>