<?xml version="1.0" encoding="UTF-8" standalone="no"?>
<!-- Created with Inkscape (http://www.inkscape.org/) -->

<svg
   width="132.29166mm"
   height="20.92227mm"
   viewBox="0 0 132.29165 20.92227"
   version="1.1"
   id="svg1"
   inkscape:version="1.4 (86a8ad7, 2024-10-11)"
   sodipodi:docname="Jaguar 2001 wordmark.svg"
   xmlns:inkscape="http://www.inkscape.org/namespaces/inkscape"
   xmlns:sodipodi="http://sodipodi.sourceforge.net/DTD/sodipodi-0.dtd"
   xmlns="http://www.w3.org/2000/svg"
   xmlns:svg="http://www.w3.org/2000/svg">
  <sodipodi:namedview
     id="namedview1"
     pagecolor="#ffffff"
     bordercolor="#000000"
     borderopacity="0.25"
     inkscape:showpageshadow="2"
     inkscape:pageopacity="0.0"
     inkscape:pagecheckerboard="0"
     inkscape:deskcolor="#d1d1d1"
     inkscape:document-units="mm"
     inkscape:zoom="1.4342733"
     inkscape:cx="97.959016"
     inkscape:cy="84.711889"
     inkscape:window-width="1920"
     inkscape:window-height="1001"
     inkscape:window-x="-9"
     inkscape:window-y="-9"
     inkscape:window-maximized="1"
     inkscape:current-layer="layer1" />
  <defs
     id="defs1" />
  <g
     inkscape:label="Layer 1"
     inkscape:groupmode="layer"
     id="layer1"
     transform="translate(-61.143777,-138.8967)">
    <path
       id="path28"
       fill="#231f20"
       stroke="none"
       d="m 144.98487,151.44357 c 0.20352,-0.84295 0.29832,-1.77337 0.29832,-3.41879 v -8.8149 h -1.94726 v 9.47675 c 0,1.1433 -0.097,1.88345 -0.22151,2.48994 -0.53949,2.62571 -2.52668,3.59222 -5.50981,3.59222 -1.41249,0 -3.08727,-0.32855 -4.05347,-1.45282 -0.85267,-0.96071 -1.03274,-2.26209 -1.03274,-4.44371 v -9.66238 h -3.16442 v 9.82909 c 0,2.00638 0.20974,3.88279 1.59533,5.24289 1.27858,1.28001 3.76376,1.84884 6.58953,1.84884 4.16229,0 6.65137,-1.38885 7.4461,-4.68713"
       style="stroke-width:0.976202" />
    <path
       id="path30"
       fill="#231f20"
       stroke="none"
       d="m 167.10473,155.76184 h 3.76535 l -8.08033,-16.55196 h -1.96685 l -8.25805,16.55196 h 2.00835 l 2.23381,-4.64768 h 8.21188 z m -6.09235,-13.41332 3.48347,7.63949 h -7.14779 z"
       style="stroke-width:0.976202" />
    <path
       id="path32"
       fill="#231f20"
       stroke="none"
       d="m 91.747498,155.76184 h 3.765328 l -8.081799,-16.55196 h -1.966051 l -8.257594,16.55196 h 2.007559 l 2.236723,-4.64768 h 8.210843 z m -6.095004,-13.41332 3.486984,7.63949 h -7.147399 z"
       style="stroke-width:0.976202" />
    <path
       id="path34"
       fill="#231f20"
       stroke="none"
       d="m 112.7459,156.12952 c 2.03848,0 4.6707,-0.39242 6.5269,-1.22927 v -6.74707 h -3.16346 v 6.04238 c -1.02029,0.39181 -2.50248,0.58302 -3.57266,0.58302 -4.20998,0 -6.9467,-2.88447 -6.9467,-7.09634 0,-4.65417 3.09917,-7.46617 7.59696,-7.46617 1.97397,0 3.99837,0.78884 5.53713,1.93638 v -1.96784 c -1.69866,-0.86222 -3.87762,-1.28791 -5.76034,-1.28791 -3.11116,0 -6.40757,0.94074 -8.57789,3.29459 -1.38579,1.51671 -2.30125,3.63504 -2.30125,5.70046 0,6.35527 5.19488,8.23777 10.66131,8.23777"
       style="stroke-width:0.976202" />
    <path
       id="path36"
       fill="#231f20"
       stroke="none"
       d="m 189.78911,155.76184 h 3.64633 l -4.8662,-6.72013 c 1.71863,-0.60954 3.64788,-2.15867 3.64788,-4.71774 0,-1.39926 -0.38444,-2.48564 -1.09458,-3.26705 -1.35143,-1.4947 -3.78336,-1.84704 -6.21135,-1.84704 h -5.98901 v 16.55196 h 3.1648 v -6.35527 h 3.31749 z M 184.414,140.35835 c 2.53685,0 4.57022,1.05912 4.57022,3.85677 0,1.39676 -0.50269,2.43084 -1.33888,3.10436 -0.79631,0.64047 -1.8173,0.9579 -3.52263,0.9579 h -2.03573 v -7.91903 h 2.32702"
       style="stroke-width:0.976202" />
    <path
       id="path38"
       fill="#231f20"
       stroke="none"
       d="m 63.838621,159.16471 c 2.876576,-1.4108 4.053782,-4.36687 4.053782,-7.4266 v -12.52823 h -3.165574 v 10.41052 c 0,1.46253 0,2.92849 -0.183527,4.39415 -0.312877,2.64066 -1.228254,4.23691 -3.399525,5.80442 0.942389,0 1.856514,-0.26149 2.694846,-0.65426"
       style="stroke-width:0.976202" />
  </g>
</svg>
