<svg xmlns="http://www.w3.org/2000/svg" viewBox="0 0 114.25 47"><defs><style>.cls-1{fill:#751327;}</style></defs><g id="Layer_2" data-name="Layer 2"><g id="Layer_1-2" data-name="Layer 1"><path class="cls-1" d="M94.91,9.89c-3.17-2-3.69-2.74-3.69-3.82a2.06,2.06,0,0,1,2.29-2,5.27,5.27,0,0,1,3.68,2V.78A8.75,8.75,0,0,0,93.7,0c-4.08,0-6.89,2.61-6.89,6.47v.06c0,3.2,2,5,5.49,7.05,2.58,1.54,3.1,2.32,3.1,3.33a2.34,2.34,0,0,1-2.55,2.35c-1.92,0-3.39-1.43-4.37-2.38L85.86,20.3a9.73,9.73,0,0,0,5.75,2.94l-2.09,3.14,3.59,1.4,1.67-4.67a6.41,6.41,0,0,0,5-6.36v-.07c0-3-1.67-4.8-4.9-6.79"/><path class="cls-1" d="M37.48,0A11.69,11.69,0,1,0,49.17,11.69,11.68,11.68,0,0,0,37.48,0m0,19a7.31,7.31,0,1,1,7.31-7.31A7.31,7.31,0,0,1,37.48,19"/><polygon class="cls-1" points="12.61 0.26 12.61 4.38 16.44 4.38 16.44 23.11 20.81 23.11 20.81 4.38 24.65 4.38 24.65 0.26 12.61 0.26"/><polygon class="cls-1" points="65.23 4.34 64.1 0.26 53.33 0.26 53.33 23.11 57.7 23.11 57.7 14.46 64.1 14.46 64.1 10.38 57.7 10.38 57.7 4.34 65.23 4.34"/><path class="cls-1" d="M77.55.26h-5L66.2,23.11h4.3l1.24-4.76h6.45l1.23,4.76h4.47Zm-4.81,14.2L75,5.81,75.27,7l1.93,7.51Z"/><path class="cls-1" d="M97.75,47l.35-1a1.32,1.32,0,0,0,1-1.35v0c0-.68-.25-1.15-1-2.12-.64-.8-.8-1.09-.8-1.52h0a.73.73,0,0,1,.75-.78,1.67,1.67,0,0,1,.92.33v-.63a1.76,1.76,0,0,0-1-.26A1.31,1.31,0,0,0,96.67,41v0c0,.62.24,1,1,2,.64.84.8,1.15.8,1.6v0a.74.74,0,0,1-.79.8,2.23,2.23,0,0,1-1.07-.38v.63a2.38,2.38,0,0,0,1,.31l-.44.72Zm-2.91-1h.73V45.1h-.73Zm-3-6.27h.62L93.82,46h-.59l-.32-1.61H91.46L91.14,46h-.57Zm.93,4.13-.63-3.13-.63,3.13ZM87.44,46H88V39.73h-.58Zm-3.63-.23a2.31,2.31,0,0,0,1.09.31,1.31,1.31,0,0,0,1.34-1.39v0c0-.68-.25-1.15-1-2.12-.64-.8-.81-1.09-.81-1.52h0a.74.74,0,0,1,.76-.78,1.64,1.64,0,0,1,.91.33v-.63a1.76,1.76,0,0,0-.95-.26A1.3,1.3,0,0,0,83.82,41v0c0,.62.23,1,1,2,.64.84.8,1.15.8,1.6v0a.74.74,0,0,1-.79.8,2.2,2.2,0,0,1-1.06-.38ZM81,39.7h.62L82.91,46h-.59L82,44.36H80.55L80.23,46h-.57Zm.93,4.13-.63-3.13-.63,3.13ZM76.23,46h.58v-1.9l.44-.92L78.46,46h.64L77.63,42.5,79,39.73h-.66L76.81,43V39.73h-.58Zm-2-7.33h.6v.67h-.6Zm0,1.09h.58V46h-.58Zm-3.94,0h.87A1.7,1.7,0,0,1,73,41.61v0a1.76,1.76,0,0,1-1,1.72L73.11,46h-.65l-1-2.44-.26,0h-.31V46H70.3Zm.88,3.3c.75,0,1.24-.47,1.24-1.38v0a1.18,1.18,0,0,0-1.27-1.35h-.27V43Zm-4.7-3.3h.84a1.57,1.57,0,0,1,1.76,1.57v0A1.44,1.44,0,0,1,68,42.81a1.42,1.42,0,0,1,1.16,1.48v0c0,1-.78,1.65-2,1.65h-.72Zm.78,2.83a1.09,1.09,0,0,0,1.24-1.18v0a1,1,0,0,0-1.16-1.09h-.28v2.29Zm0,2.88c.82,0,1.33-.4,1.33-1.15v0a1.13,1.13,0,0,0-1.29-1.19h-.23v2.36Zm-3.8-5.74h.62L65.39,46H64.8l-.33-1.61H63L62.71,46h-.57Zm.94,4.13-.64-3.13-.63,3.13ZM59.45,46H60V43.16H61.4v-.53H60V40.27h1.52v-.54h-2.1ZM55,46h2v-.54H55.6v-5.7H55Zm-2-7.33h.61v.67H53Zm0,1.09h.58V46H53Zm-3.86,0H50a1.58,1.58,0,0,1,1.77,1.57v0a1.44,1.44,0,0,1-1.08,1.48,1.42,1.42,0,0,1,1.16,1.48v0c0,1-.78,1.65-2,1.65h-.72ZM50,42.56a1.1,1.1,0,0,0,1.24-1.18v0A1,1,0,0,0,50,40.27h-.28v2.29Zm0,2.88c.82,0,1.34-.4,1.34-1.15v0A1.13,1.13,0,0,0,50,43.08h-.23v2.36Zm-5-2.49v-.2c0-2,.64-3.1,1.53-3.1S48,40.7,48,42.75V43c0,2.06-.64,3.1-1.52,3.1s-1.53-1-1.53-3.1m2.47,0v-.2c0-1.75-.41-2.56-.94-2.56s-.95.81-.95,2.56V43c0,1.76.41,2.56.95,2.56s.94-.8.94-2.56m-7,3h.55V41L42,44.31h0L43.16,41V46h.56V39.73h-.64L42,42.9,41,39.73h-.64Zm-4.26-3v-.2c0-2,.65-3.1,1.53-3.1s1.53,1.05,1.53,3.1V43c0,2.06-.64,3.1-1.53,3.1s-1.53-1-1.53-3.1m2.48,0v-.2c0-1.75-.41-2.56-1-2.56s-.94.81-.94,2.56V43c0,1.76.41,2.56.94,2.56s1-.8,1-2.56m-4.69,3h.58v-5.7h.95v-.54H32.92v.54h.95Zm-4.69-3v-.2c0-2,.65-3.1,1.53-3.1s1.53,1.05,1.53,3.1V43c0,2.06-.64,3.1-1.53,3.1s-1.53-1-1.53-3.1m2.48,0v-.2c0-1.75-.41-2.56-.95-2.56s-.94.81-.94,2.56V43c0,1.76.41,2.56.94,2.56s.95-.8.95-2.56m-7.55,3h.57v-1.9l.44-.92L26.33,46H27L25.5,42.5l1.34-2.77h-.66L24.68,43V39.73h-.57Zm-3.9-6.24h.86a1.7,1.7,0,0,1,1.83,1.88v0a1.74,1.74,0,0,1-1,1.72L23,46h-.65l-1-2.44-.26,0h-.3V46h-.58Zm.87,3.3c.75,0,1.24-.47,1.24-1.38v0a1.18,1.18,0,0,0-1.26-1.35h-.27V43Zm-5,1.28V39.73h.57v4.61c0,.78.32,1.17.83,1.17s.83-.39.83-1.17V39.73h.58v4.58c0,1.11-.56,1.74-1.41,1.74s-1.4-.63-1.4-1.74m.59-5.64h.59v.67h-.59Zm1,0h.59v.67H17.7ZM13.55,46h.58v-5.7h1v-.54H12.61v.54h.94Z"/><rect class="cls-1" x="100.06" y="45.1" width="0.73" height="0.87"/><path class="cls-1" d="M57.12,32.46c-9.23,0-18.43.07-27.62.16-9.82.1-19.6.3-29.37.72L0,33.48l.13.14c9.77.42,19.55.62,29.37.72,9.19.09,18.39.16,27.62.16s18.44-.07,27.63-.16c9.81-.1,19.6-.3,29.37-.72l.13-.14-.13-.14c-9.77-.42-19.56-.62-29.37-.72-9.19-.09-18.4-.16-27.63-.16"/><path class="cls-1" d="M57.12,32.46c-9.23,0-18.43.07-27.62.16-9.82.1-19.6.3-29.37.72L0,33.48l.13.14c9.77.42,19.55.62,29.37.72,9.19.09,18.39.16,27.62.16s18.44-.07,27.63-.16c9.81-.1,19.6-.3,29.37-.72l.13-.14-.13-.14c-9.77-.42-19.56-.62-29.37-.72-9.19-.09-18.4-.16-27.63-.16"/></g></g></svg>